<svg xmlns="http://www.w3.org/2000/svg" viewBox="0 0 500 500"><g id="freepik--background-complete--inject-85"><rect x="334.36" y="284.78" width="75.18" height="83.26" style="fill:#ebebeb"></rect><rect x="409.54" y="284.78" width="38.82" height="83.26" style="fill:#dbdbdb"></rect><path d="M445.69,362.3q-4.31-8.88-8.55-17.82l-8.42-17.9-8.31-18q-4.14-9-8.19-18.08,4.3,8.88,8.54,17.82l8.43,17.91,8.31,18Q441.64,353.23,445.69,362.3Z" style="fill:#ebebeb"></path><path d="M445.69,290.51q-4.05,9.08-8.19,18.08l-8.31,18-8.43,17.91q-4.23,8.92-8.54,17.81,4-9.06,8.19-18.07l8.31-18,8.42-17.91Q441.37,299.39,445.69,290.51Z" style="fill:#ebebeb"></path><rect x="334.36" y="159.04" width="75.18" height="77.52" style="fill:#ebebeb"></rect><rect x="409.54" y="159.04" width="38.82" height="77.52" style="fill:#dbdbdb"></rect><polygon points="378.33 177.03 376.74 177.03 375.55 177.03 374.86 175.64 373.9 177.03 372.61 174.18 371.38 177.03 367.86 177.03 366.25 177.03 365.67 175.13 365.12 177.03 364.08 177.03 364.08 159.04 378.33 159.04 378.33 177.03" style="fill:#dbdbdb"></polygon><path d="M445.69,231.61q-4.31-8.27-8.55-16.59l-8.42-16.67-8.31-16.75q-4.14-8.39-8.19-16.83,4.3,8.26,8.54,16.59L429.19,198l8.31,16.74Q441.64,223.17,445.69,231.61Z" style="fill:#ebebeb"></path><path d="M445.69,164.77q-4.05,8.44-8.19,16.83l-8.31,16.75L420.76,215q-4.23,8.32-8.54,16.59,4-8.43,8.19-16.83L428.72,198l8.42-16.68Q441.37,173,445.69,164.77Z" style="fill:#ebebeb"></path><rect x="396.24" y="223.4" width="8.35" height="8.35" style="fill:#fff"></rect><rect x="56.62" y="217.68" width="75.18" height="77.52" style="fill:#ebebeb"></rect><rect x="131.8" y="217.68" width="38.82" height="77.52" style="fill:#dbdbdb"></rect><path d="M168,290.26q-4.32-8.28-8.55-16.59L151,257l-8.32-16.74q-4.12-8.38-8.18-16.83,4.31,8.27,8.54,16.58l8.43,16.68,8.31,16.75Q163.9,281.81,168,290.26Z" style="fill:#ebebeb"></path><path d="M168,223.42q-4.06,8.43-8.19,16.83L151.45,257,143,273.67q-4.23,8.32-8.54,16.59,4.05-8.44,8.18-16.83L151,256.68,159.4,240Q163.63,231.69,168,223.42Z" style="fill:#ebebeb"></path><rect x="118.5" y="282.04" width="8.35" height="8.35" style="fill:#fff"></rect><rect x="339.37" y="236.56" width="75.18" height="48.22" style="fill:#dbdbdb"></rect><rect x="414.55" y="236.56" width="38.82" height="48.22" style="fill:#c7c7c7"></rect><polygon points="383.34 254.55 381.75 254.55 380.55 254.55 379.87 253.17 378.91 254.55 377.62 251.7 376.39 254.55 372.87 254.55 371.26 254.55 370.68 252.65 370.13 254.55 369.09 254.55 369.09 236.56 383.34 236.56 383.34 254.55" style="fill:#fff"></polygon><path d="M450.7,281.91q-4.32-5.25-8.55-10.54l-8.42-10.6-8.31-10.64q-4.14-5.34-8.19-10.7,4.31,5.25,8.54,10.54l8.43,10.6,8.31,10.64Q446.65,276.55,450.7,281.91Z" style="fill:#dbdbdb"></path><path d="M450.7,239.43q-4.05,5.37-8.19,10.69l-8.31,10.65-8.43,10.6q-4.23,5.28-8.54,10.54,4-5.37,8.19-10.7l8.31-10.64,8.42-10.6Q446.38,244.69,450.7,239.43Z" style="fill:#dbdbdb"></path><rect x="51.68" y="169.46" width="75.18" height="48.22" style="fill:#dbdbdb"></rect><rect x="126.87" y="169.46" width="38.82" height="48.22" style="fill:#c7c7c7"></rect><polygon points="95.65 187.45 94.06 187.45 92.87 187.45 92.18 186.07 91.23 187.45 89.93 184.6 88.7 187.45 85.18 187.45 83.57 187.45 82.99 185.55 82.44 187.45 81.4 187.45 81.4 169.46 95.65 169.46 95.65 187.45" style="fill:#fff"></polygon><path d="M163,214.81q-4.31-5.25-8.54-10.54L146,193.67,137.73,183q-4.14-5.34-8.19-10.7,4.32,5.25,8.55,10.54l8.42,10.6,8.31,10.64Q159,209.45,163,214.81Z" style="fill:#dbdbdb"></path><path d="M163,172.33q-4,5.37-8.19,10.7l-8.31,10.64-8.42,10.6q-4.23,5.28-8.55,10.54,4.05-5.37,8.19-10.7L146,193.47l8.43-10.6Q158.7,177.59,163,172.33Z" style="fill:#dbdbdb"></path><rect x="46.63" y="295.2" width="75.18" height="72.83" style="fill:#dbdbdb"></rect><rect x="121.81" y="295.2" width="38.82" height="72.83" style="fill:#c7c7c7"></rect><polygon points="90.6 313.2 89.01 313.2 87.81 313.2 87.13 311.81 86.17 313.2 84.87 310.34 83.64 313.2 80.12 313.2 78.52 313.2 77.94 311.29 77.39 313.2 76.34 313.2 76.34 295.2 90.6 295.2 90.6 313.2" style="fill:#fff"></polygon><path d="M158,363.7q-4.32-7.93-8.55-15.92l-8.42-16-8.32-16.08q-4.14-8-8.19-16.15,4.32,7.93,8.55,15.92l8.42,16,8.32,16.08Q153.9,355.59,158,363.7Z" style="fill:#dbdbdb"></path><path d="M158,299.54q-4.07,8.1-8.19,16.15l-8.32,16.08-8.42,16q-4.23,8-8.55,15.92,4.06-8.1,8.19-16.15L141,331.47l8.42-16Q153.64,307.48,158,299.54Z" style="fill:#dbdbdb"></path><path d="M72.59,325.06l-13.12.27-6.66.12c-2.23,0-4.47,0-6.7.05h-.44v-.44l-.06-11.19v-.51h.5l13.24.06c4.42,0,8.83.11,13.24.16h.28v.27c0,1.89-.09,3.78-.13,5.65Zm0,0-.14-5.66c0-1.86-.11-3.7-.13-5.53l.27.27c-4.41.05-8.82.16-13.24.16l-13.24.07.5-.5,0,11.19-.45-.45c2.18,0,4.36,0,6.55.05l6.58.12Z" style="fill:#ebebeb"></path><path d="M57.82,339.17l-13.12.27-6.66.12c-2.23,0-4.47,0-6.7.05H30.9v-.44L30.84,328v-.51h.5l13.24.06c4.41,0,8.83.11,13.24.16h.28V328c0,1.89-.08,3.78-.13,5.65Zm0,0-.14-5.66c0-1.86-.11-3.7-.13-5.53l.27.27c-4.41.05-8.83.16-13.24.16l-13.24.06.5-.49-.05,11.19-.45-.45c2.18,0,4.36,0,6.55,0l6.58.12Z" style="fill:#ebebeb"></path><path d="M338.6,136.6l-13.13.28-6.66.11c-2.22,0-4.46,0-6.69.06h-.44v-.45l-.05-11.19v-.5h.5l13.24.06c4.41,0,8.83.12,13.24.17h.28v.27c0,1.9-.08,3.79-.13,5.65Zm0,0-.14-5.65c0-1.87-.11-3.71-.13-5.54l.27.27c-4.41,0-8.83.16-13.24.17l-13.24.06.5-.5-.06,11.19-.44-.45c2.18,0,4.36,0,6.54.06l6.58.11Z" style="fill:#ebebeb"></path><path d="M323.83,150.71,310.7,151l-6.66.11c-2.22.05-4.46,0-6.69.06h-.45v-.45l0-11.19V139h.5l13.24.06c4.41,0,8.82.12,13.24.17h.27v.27c0,1.9-.09,3.79-.13,5.65Zm0,0-.14-5.65c-.05-1.87-.12-3.71-.14-5.54l.28.27c-4.42.05-8.83.16-13.24.17l-13.24.06.5-.5-.06,11.19-.44-.45c2.18,0,4.36,0,6.54.06l6.58.11Z" style="fill:#ebebeb"></path><path d="M309.11,136.6l-13.12.28-6.66.11c-2.23,0-4.46,0-6.7.06h-.44v-.45l-.06-11.19v-.5h.5l13.24.06c4.42,0,8.83.12,13.24.17h.28v.27c0,1.9-.09,3.79-.13,5.65Zm0,0L309,131c0-1.87-.11-3.71-.13-5.54l.27.27c-4.41,0-8.82.16-13.24.17l-13.24.06.5-.5-.05,11.19-.45-.45c2.19,0,4.36,0,6.55.06l6.58.11Z" style="fill:#ebebeb"></path><path d="M468.66,339.17l-13.13.27-6.66.12c-2.22,0-4.46,0-6.69.05h-.45v-.44L441.68,328v-.51h.5l13.24.06c4.41,0,8.83.11,13.24.16h.27V328c0,1.89-.08,3.78-.13,5.65Zm0,0-.14-5.66c0-1.86-.12-3.7-.13-5.53l.27.27c-4.41.05-8.83.16-13.24.16l-13.24.06.5-.49-.06,11.19-.44-.45c2.18,0,4.36,0,6.54,0l6.58.12Z" style="fill:#ebebeb"></path><path d="M453.89,65.49l-13.13.27-6.66.12c-2.22,0-4.46,0-6.69.05H427v-.45l0-11.19v-.51h.51l13.24.06c4.41,0,8.82.11,13.24.16h.27v.27c0,1.9-.09,3.78-.13,5.65Zm0,0-.14-5.66c-.05-1.86-.12-3.7-.14-5.53l.28.27c-4.42,0-8.83.16-13.24.16l-13.24.07.5-.5-.06,11.19-.44-.45c2.18,0,4.35,0,6.54.06l6.58.11Z" style="fill:#ebebeb"></path><path d="M468.66,79.6l-13.13.27-6.66.12c-2.22,0-4.46,0-6.69.05h-.45V79.6l-.05-11.19V67.9h.5l13.24.06c4.41,0,8.83.11,13.24.16h.27v.27c0,1.89-.08,3.78-.13,5.65Zm0,0-.14-5.66c0-1.86-.12-3.7-.13-5.53l.27.27c-4.41,0-8.83.16-13.24.16l-13.24.07.5-.5-.06,11.19-.44-.45c2.18,0,4.36,0,6.54.06l6.58.11Z" style="fill:#ebebeb"></path><path d="M72.59,65.49l-13.12.27-6.66.12c-2.23,0-4.47,0-6.7.05h-.44v-.45L45.61,54.3v-.51h.5l13.24.06c4.42,0,8.83.11,13.24.16h.28v.27c0,1.9-.09,3.78-.13,5.65Zm0,0-.14-5.66c0-1.86-.11-3.7-.13-5.53l.27.27c-4.41,0-8.82.16-13.24.16l-13.24.07.5-.5,0,11.19L46.11,65c2.18,0,4.36,0,6.55.06l6.58.11Z" style="fill:#ebebeb"></path></g><g id="freepik--Floor--inject-85"><polygon points="40.29 368.18 92.72 367.93 145.14 367.84 250 367.68 354.86 367.84 407.28 367.93 459.71 368.18 407.28 368.42 354.86 368.51 250 368.67 145.14 368.51 92.72 368.42 40.29 368.18" style="fill:#263238"></polygon></g><g id="freepik--Shadow--inject-85"><ellipse cx="255.96" cy="434.75" rx="215.67" ry="24.6" style="fill:#ebebeb"></ellipse></g><g id="freepik--Shelf--inject-85"><rect x="140.84" y="56.31" width="29.04" height="311.73" style="fill:#263238"></rect><rect x="330.12" y="56.31" width="29.04" height="311.73" style="fill:#455a64"></rect><rect x="152.76" y="86.88" width="177.36" height="10.47" style="fill:#37474f"></rect><rect x="152.76" y="154.55" width="177.36" height="10.47" style="fill:#37474f"></rect><rect x="152.76" y="222.22" width="177.36" height="10.47" style="fill:#37474f"></rect><rect x="152.76" y="289.89" width="177.36" height="10.47" style="fill:#37474f"></rect><rect x="152.76" y="357.56" width="177.36" height="10.47" style="fill:#37474f"></rect><rect x="173.29" y="97.87" width="54.96" height="56.67" style="fill:#ebebeb"></rect><rect x="228.26" y="97.87" width="28.38" height="56.68" style="fill:#dbdbdb"></rect><polygon points="205.44 111.03 204.28 111.03 203.4 111.03 202.9 110.02 202.2 111.03 201.25 108.94 200.35 111.03 197.78 111.03 196.61 111.03 196.18 109.64 195.78 111.03 195.02 111.03 195.02 97.87 205.44 97.87 205.44 111.03" style="fill:#dbdbdb"></polygon><path d="M254.68,150.93q-3.15-6-6.25-12.13l-6.15-12.19-6.08-12.24q-3-6.14-6-12.3,3.15,6,6.25,12.13l6.16,12.19,6.08,12.24Q251.72,144.76,254.68,150.93Z" style="fill:#ebebeb"></path><path d="M254.68,102.07q-3,6.17-6,12.3l-6.08,12.24-6.16,12.2q-3.09,6.08-6.25,12.12,3-6.17,6-12.3l6.08-12.24,6.15-12.19Q251.54,108.11,254.68,102.07Z" style="fill:#ebebeb"></path><rect x="218.53" y="144.93" width="6.1" height="6.1" style="fill:#fff"></rect><rect x="207.91" y="186.97" width="54.96" height="35.25" style="fill:#dbdbdb"></rect><rect x="262.87" y="186.97" width="28.38" height="35.25" style="fill:#c7c7c7"></rect><polygon points="240.05 200.12 238.89 200.12 238.01 200.12 237.51 199.11 236.81 200.12 235.87 198.04 234.97 200.12 232.39 200.12 231.22 200.12 230.79 198.73 230.4 200.12 229.63 200.12 229.63 186.97 240.05 186.97 240.05 200.12" style="fill:#fff"></polygon><path d="M289.3,220.12q-3.17-3.84-6.25-7.7l-6.16-7.75-6.08-7.78q-3-3.9-6-7.82,3.17,3.84,6.25,7.7l6.16,7.75,6.08,7.78Q286.34,216.2,289.3,220.12Z" style="fill:#dbdbdb"></path><path d="M289.3,189.07q-3,3.92-6,7.82l-6.08,7.78-6.16,7.75q-3.09,3.86-6.25,7.7,3-3.92,6-7.82l6.08-7.78,6.16-7.74Q286.14,192.91,289.3,189.07Z" style="fill:#dbdbdb"></path></g><g id="freepik--character-2--inject-85"><path d="M458.6,427c-.25-2.35-27.26-60.54-29.69-62.1-.92-.61-9.63,2.83-20,7.29l-.33.14c-2.14.91-41.73,11.55-41.73,11.55L384.37,422l41.19-11.89.63-.31s20.3,17.65,23.16,19.08S458.87,429.39,458.6,427Z" style="fill:#c95f50"></path><path d="M401,374.58l18,37.39,6.48-1.87.64-.3s20.3,17.65,23.15,19.08,9.54.51,9.26-1.84-27.26-60.55-29.69-62.1c-.92-.61-9.63,2.82-20,7.29l-.31.14C408,372.6,405.1,373.44,401,374.58Z" style="fill:#ebebeb"></path><path d="M458.83,427.33c-.25-2.37-27.32-61.23-29.77-62.82-.92-.61-9.73,2.83-20.24,7.29l17.34,38s20.44,17.9,23.31,19.36S459.09,429.7,458.83,427.33Z" style="fill:#01B764"></path><path d="M456.09,427.57C451.31,417.82,433,378,429,368c0-.08,0-.1.07,0,4.94,9.56,23,49.5,27.21,59.51C456.34,427.71,456.19,427.78,456.09,427.57Z" style="fill:#263238"></path><path d="M445.61,426.35a8.71,8.71,0,0,1-.3-7,8.39,8.39,0,0,1,4.25-4.63c.06,0,.11.08.06.12a10.08,10.08,0,0,0-3.88,11.46C445.77,426.37,445.65,426.43,445.61,426.35Z" style="fill:#263238"></path><path d="M428.9,413.18c-1.87-3.93-2.59-9.15-.48-13.09.08-.15.29,0,.29.11a60.5,60.5,0,0,0,.7,12.82A.27.27,0,0,1,428.9,413.18Z" style="fill:#263238"></path><path d="M431.49,415.68c-1.87-3.93-2.59-9.14-.48-13.08.08-.16.29,0,.29.11a60.4,60.4,0,0,0,.7,12.81A.27.27,0,0,1,431.49,415.68Z" style="fill:#263238"></path><path d="M434.08,418.18c-1.87-3.92-2.59-9.14-.48-13.08.08-.15.29,0,.29.11a60.53,60.53,0,0,0,.7,12.82A.27.27,0,0,1,434.08,418.18Z" style="fill:#263238"></path><path d="M436.67,420.68c-1.87-3.92-2.58-9.14-.48-13.08.08-.15.29,0,.29.11a60.5,60.5,0,0,0,.7,12.82A.27.27,0,0,1,436.67,420.68Z" style="fill:#263238"></path><path d="M420.76,374.84c-2-4.44,4.87-7.59,6.89-3.15S422.79,379.28,420.76,374.84Z" style="fill:#263238"></path><path d="M426,419.31c1.77-3.39,2-7.44,2.66-11.14a.52.52,0,0,0-.64-.56c0-.07-.09-.12-.17-.08a22.87,22.87,0,0,0-8.45,8.24c-1.15,2-1.62,5.28,1,6.52S424.93,421.3,426,419.31ZM422.78,421c-4.48,1.58-3-3.81-2-5.27a23.51,23.51,0,0,1,2-2.67,67.79,67.79,0,0,1,4.83-4.91c-.44,1.8-.71,3.62-1.07,5.44C426.05,415.75,425.25,420.13,422.78,421Z" style="fill:#263238"></path><path d="M418.84,394.67c-2.43,1.49-1.64,4.69-.28,6.59a22.85,22.85,0,0,0,9.25,7.32.12.12,0,0,0,.16-.09c.32,0,.69-.25.58-.63-1-3.62-1.68-7.61-3.79-10.81C423.53,395.18,421.15,393.25,418.84,394.67Zm7,8c.55,1.77,1,3.56,1.62,5.3-1.8-1.43-3.65-2.78-5.31-4.39a26.23,26.23,0,0,1-2.26-2.45c-1.05-1.36-3.12-6.57,1.5-5.45C424,396.31,425.21,400.59,425.87,402.69Z" style="fill:#263238"></path><path d="M314.87,259.68s.73,22.81,4.15,34.05c0,0,3.73,2,4.85,2.66,0,0-28.34,67.86-26.73,94,.53,8.56,10.23,22.63,20,28.72,17.32,10.78,101.89,1.32,101.89,1.32l-12.27-50.84s-53.47,3-54.82.08c-1.71-3.67,8.93-32.21,17.44-55.4.85-2.34,9.41-11,8.41-26.62a81,81,0,0,0-7.36-27.93Z" style="fill:#37474f"></path><path d="M397,375.2c-11.67-.22-21.17.77-32.84.78H351a13,13,0,0,1-3-.28,3.77,3.77,0,0,1-2.35-1.39c-.77-1.16-.36-2.63-.09-3.88q.88-4.11,2-8.18c2.94-11,6.78-21.78,10.39-32.59L363.43,313c.45-1.35.9-2.71,1.47-4a33.33,33.33,0,0,1,1.84-3.5,32.22,32.22,0,0,0,3.16-6.88c3.16-10.37.13-21.1-3.56-30.89-.5-1.31-1-2.62-1.55-3.92,0-.09-.18-.05-.14.05,3.36,10.33,7.37,21.08,5.11,32.1a26.51,26.51,0,0,1-2.69,7.42c-.65,1.18-1.36,2.33-2,3.52a29.85,29.85,0,0,0-1.63,3.76c-2,5.47-3.72,11-5.57,16.56-3.69,11-7.57,21.92-10.64,33.09-.76,2.78-1.47,5.58-2.1,8.39-.46,2.08-1.5,4.9.31,6.62,1.33,1.26,3.41,1.41,5.14,1.43,2.91,0,5.81,0,8.72,0,11.83,0,36.26-1,37.73-1.05A.21.21,0,0,0,397,375.2Z" style="fill:#263238"></path><path d="M410.07,418c-1.14-5.94-2.24-11.91-3.55-17.81s-2.74-11.82-4.27-17.69c-.44-1.66-.88-3.31-1.33-5-.21-.79-.42-1.57-.65-2.36a19.65,19.65,0,0,0-.73-2.37c0-.08-.15,0-.14.05a32.52,32.52,0,0,0,.81,4.56c.29,1.43.56,2.87.86,4.3q.92,4.42,1.87,8.83c1.29,5.89,2.75,11.73,4.25,17.57.86,3.31,1.71,6.63,2.58,9.94C409.82,418.27,410.11,418.23,410.07,418Z" style="fill:#263238"></path><path d="M306.85,342.81l60-21.74c.84-2.31,1.68-4.6,2.5-6.84s9.41-11,8.42-26.63a80.69,80.69,0,0,0-7.36-27.92H314.87s.72,22.81,4.15,34c0,0,3.73,2,4.85,2.67C323.87,296.39,314.51,318.79,306.85,342.81Z" style="fill:#263238"></path><path d="M215.59,429.77c2.26.68,66.38-1.44,68.77-3.07.92-.6,1.15-10,1.11-21.28v-.36c0-2.33-5.31-41.44-5.31-41.44L235.28,365l8.81,41,0,.7S220,418.46,217.51,420.53,213.32,429.1,215.59,429.77Z" style="fill:#c95f50"></path><path d="M215.59,429.78c2.26.68,66.38-1.45,68.77-3.08.92-.61,1.16-10,1.11-21.28v-.36c0-.64-.4-4-1-8.61l-42.1,1.64,1.68,7.88,0,.7s-24.19,11.79-26.63,13.86S213.32,429.1,215.59,429.78Z" style="fill:#ebebeb"></path><path d="M215.1,430.05c2.29.68,67-1.47,69.45-3.11.92-.62,1.16-10.07,1.12-21.49l-41.75,1.27s-24.42,11.91-26.88,14S212.81,429.37,215.1,430.05Z" style="fill:#01B764"></path><path d="M215.94,427.43c10.85-.63,54.64-2.13,65.41-1.93.09,0,.09.06,0,.07-10.73.85-54.54,2-65.4,2C215.72,427.61,215.71,427.45,215.94,427.43Z" style="fill:#263238"></path><path d="M221.13,418.25a8.71,8.71,0,0,1,6.58,2.43,8.45,8.45,0,0,1,2.62,5.71c0,.07-.12.07-.13,0a10.08,10.08,0,0,0-9.07-8A.07.07,0,0,1,221.13,418.25Z" style="fill:#263238"></path><path d="M239.74,407.93c4.35-.2,9.43,1.17,12.25,4.63.11.13-.08.29-.21.22a60.87,60.87,0,0,0-12.09-4.31A.27.27,0,0,1,239.74,407.93Z" style="fill:#263238"></path><path d="M236.43,409.35c4.35-.2,9.43,1.16,12.25,4.63.11.13-.08.28-.21.22a60.24,60.24,0,0,0-12.09-4.31A.27.27,0,0,1,236.43,409.35Z" style="fill:#263238"></path><path d="M233.12,410.77c4.35-.2,9.43,1.16,12.25,4.63.11.13-.08.28-.21.22a60.24,60.24,0,0,0-12.09-4.31A.27.27,0,0,1,233.12,410.77Z" style="fill:#263238"></path><path d="M229.81,412.19c4.35-.2,9.43,1.16,12.25,4.63.11.13-.08.28-.21.22a60.24,60.24,0,0,0-12.09-4.31A.27.27,0,0,1,229.81,412.19Z" style="fill:#263238"></path><path d="M278.24,415.28c4.88-.15,5.12,7.43.23,7.58S273.36,415.43,278.24,415.28Z" style="fill:#263238"></path><path d="M235.22,402.85c2.45,2.95,6.08,4.74,9.25,6.77a.53.53,0,0,0,.77-.37c.07,0,.14,0,.13-.13a22.8,22.8,0,0,0-4.32-11c-1.42-1.85-4.25-3.54-6.39-1.64S233.8,401.13,235.22,402.85Zm-.32-3.59c.28-4.74,4.66-1.25,5.65.15a25.22,25.22,0,0,1,1.69,2.88c1.06,2,1.81,4.22,2.66,6.36-1.49-1.1-3.07-2.06-4.6-3.1C238.48,404.32,234.75,401.88,234.9,399.26Z" style="fill:#263238"></path><path d="M260.7,405.83c-.43-2.82-3.69-3.33-6-2.81a22.85,22.85,0,0,0-10.33,5.69.11.11,0,0,0,0,.18.53.53,0,0,0,.35.79c3.73.45,7.67,1.4,11.43.69C258.41,410,261.11,408.5,260.7,405.83Zm-10.12,3.37c-1.84-.17-3.66-.44-5.51-.55a66.84,66.84,0,0,1,6.11-3.19,22.94,22.94,0,0,1,3.13-1.14c1.66-.45,7.26-.34,4.45,3.49C257.2,409.92,252.78,409.42,250.58,409.2Z" style="fill:#263238"></path><path d="M240.43,402.84h50.21s-8.94-68.35-6-72.81c1.31-2,66.49,4.57,85.56-16.08,17.43-18.89-.31-54.27-.31-54.27h-53.5s-1.09,15.17-4,21.23c-1.23,2.6-61-1.11-70.36,16C229.59,319.7,240.43,402.84,240.43,402.84Z" style="fill:#37474f"></path><path d="M285.35,393.29c-5.67-.17-11.35-.39-17-.38s-11.37.12-17.06.34c-1.6.07-6.34.29-7.1.35a17.85,17.85,0,0,0-2.32.2c-.09,0-.07.14,0,.15,1.23.21,14.08.36,16.9.36,5.65,0,11.29-.15,16.94-.35q4.82-.16,9.63-.36C285.51,393.59,285.53,393.3,285.35,393.29Z" style="fill:#263238"></path><path d="M318.6,276.06c.23-1.61.44-3.22.63-4.82.43-3.67.81-7.37.92-11.06,0-.29-.4-.26-.43,0-.35,2.85-.61,5.71-.93,8.56s-.57,5.7-1.1,8.5c-.16.84-.52,2.25-1.59,2.27-1.45,0-1.73-1.94-1.85-3a48.33,48.33,0,0,1-.15-8c.16-3,.54-6.06.88-9.07,0-.11-.17-.13-.19,0-1.25,5.87-2.45,12-1.41,18a3.33,3.33,0,0,0,1.94,2.83h.06a1,1,0,0,0,0,.1c0,.17,0,.34,0,.51a3.09,3.09,0,0,0,0,.43c0,.3,0,.59,0,.89a.22.22,0,0,0,.44,0,.18.18,0,0,0,.15-.15,4.63,4.63,0,0,0,0-1.74,2.09,2.09,0,0,0,1.78-1A7.52,7.52,0,0,0,318.6,276.06Z" style="fill:#263238"></path><path d="M313.28,280.4a85.59,85.59,0,0,1,11.51,9.47.15.15,0,0,1-.19.24c-3.92-3-8-6-11.69-9.24A.3.3,0,0,1,313.28,280.4Z" style="fill:#263238"></path><path d="M357.26,283.31a22.21,22.21,0,0,1-3.46-.26,28.69,28.69,0,0,1-3-.77c-1.85-.54-4.11-1.19-5.46-2.66a19.52,19.52,0,0,1-3.1-5.34,21.49,21.49,0,0,1-1.82-6.38c0-.09-.17-.09-.16,0a32.85,32.85,0,0,0,1.14,6.75,21.8,21.8,0,0,0,1.26,3.19,11.46,11.46,0,0,0,1.79,2.86c1.5,1.61,3.94,2.4,6,2.82a19,19,0,0,0,6.81,0C357.45,283.54,357.4,283.32,357.26,283.31Z" style="fill:#263238"></path><path d="M279.26,326.79a2.93,2.93,0,0,1,2.46-2.33,24.19,24.19,0,0,1,4.34-.09c3.34,0,6.69.07,10,.08,13.18,0,26.47-.34,39.43-2.94A92.57,92.57,0,0,0,354,316c5-2.18,10.05-5.16,13.19-9.79,3.61-5.32,3.89-12.29,3.76-18.52a71,71,0,0,0-3.22-19.82c-.52-1.63-1.09-3.24-1.74-4.82,0-.1.11-.19.15-.09A68.77,68.77,0,0,1,371.32,282a65.1,65.1,0,0,1,.44,9.77,37.5,37.5,0,0,1-1.23,9.49c-3.42,11.66-16.48,16.47-27,19.43-12.72,3.57-26,4.56-39.13,4.75-6.6.1-13.22,0-19.83-.09-1.26,0-3.34-.37-4.09.95a7.35,7.35,0,0,0-.59,2.41c-.14.93-.25,1.86-.32,2.8a80.74,80.74,0,0,0,.14,10.55q.63,10.69,1.48,21.39c.57,7.16,1.37,14.31,1.89,21.48.13,1.76.3,3.51.47,5.26,0,.2-.33.24-.36,0-1.83-14.17-3.14-28.39-4.07-42.64-.23-3.52-.49-7.05-.59-10.57A38.05,38.05,0,0,1,279.26,326.79Z" style="fill:#263238"></path><path d="M311.41,329.41a109.25,109.25,0,0,0,13.33-1c4.17-.52,8.32-1.09,12.46-1.79,7.2-1.23,14.56-2.58,21.35-5.32a37.41,37.41,0,0,0,10.29-6c.08-.07.2.05.12.12-5.14,5-11.66,7.93-18.52,9.79a149.6,149.6,0,0,1-24,4.21,130.6,130.6,0,0,1-15.07.44A.26.26,0,0,1,311.41,329.41Z" style="fill:#263238"></path><path d="M327,199.32c.15,16.43-4.31,41.36-10.46,53.44-4.4,8.63-30.59,25.61-44.5,29.43-4.92,1.36-7.37-19.09-5-24.1,1.44-3,27.61-17.53,30.29-21.53,4.07-6.09,12.32-23.37,18.42-38.14C319,190.63,326.88,189.11,327,199.32Z" style="fill:#c95f50"></path><path d="M275.65,253.43s-7.71-.93-11.18-.59-16,6.37-14.82,9.14c1.49,3.58,9.38,1.52,13.12,0,0,0,3.42,8.28,9.41,8S275.65,253.43,275.65,253.43Z" style="fill:#c95f50"></path><path d="M276.58,280.46c-2.72,1.22-15.66,5.69-19.54,6.13s-15.14.9-15.78-2,2.64-3.33,2.64-3.33-4.78-.56-5.15-3.58,4.75-3.47,4.75-3.47-4.87-.93-5-4,5.08-2.63,5.08-2.63-4.49-.64-3.57-3.2c1.11-3.07,9.26-.94,13.51-1.75,1-.19,19.29-5.11,19.29-5.11Z" style="fill:#c95f50"></path><path d="M243.1,267.56c6,1.55,8.89,1.19,14.7-.68.12,0,.2.13.08.18-5.52,2.34-9.08,3.31-14.87.78C242.73,267.72,242.82,267.48,243.1,267.56Z" style="fill:#263238"></path><path d="M243,274c6.37,1.07,9.51.71,15.74-.8.09,0,.13.13,0,.16-6,2-9.56,2.87-15.78,1C242.74,274.29,242.74,274,243,274Z" style="fill:#263238"></path><path d="M244.22,281.13c6.24.59,9.7.34,15.56-1.9.14-.05.23.15.1.21-5.76,2.86-10.07,3.21-15.66,1.88C243.84,281.23,243.83,281.09,244.22,281.13Z" style="fill:#263238"></path><path d="M250.38,262.83c3.71,2.29,8.48,0,12.22-1.22a.36.36,0,0,1,.48.34c1.67,3.37,5,7.65,8.93,8.24a.09.09,0,1,1,0,.18c-4.3-.06-7.92-4-9.51-7.81-3.81,1.29-8.7,3.39-12.13.3C250.34,262.85,250.36,262.82,250.38,262.83Z" style="fill:#263238"></path><path d="M304.8,216.79l20.86,13.78s2.77-27.36,1.31-35.63c-1.64-9.31-6-6.44-11.26.88S304.8,216.79,304.8,216.79Z" style="fill:#01B764"></path><path d="M304.8,216.79l20.86,13.78s2.77-27.36,1.31-35.63c-1.64-9.31-6-6.44-11.26.88S304.8,216.79,304.8,216.79Z" style="opacity:0.1"></path><path d="M308,213.51c2.9,1.39,11,6.79,12.33,7.67.71.47,3.46,2.44,4.17,2.9.09.06,0,.19-.1.13-1.36-.87-2.81-1.61-4.18-2.47s-9.8-6.06-12.28-8.13C307.9,213.57,308,213.47,308,213.51Z" style="fill:#263238"></path><path d="M327.25,206c0-.12.17-.09.17,0,0,2.34,0,4.67-.06,7a20.78,20.78,0,0,0,.61-3.61,0,0,0,0,1,.09,0,17,17,0,0,1-.72,4.17c0,1.63-.12,3.25-.2,4.88-.22,4.14-.39,8.29-.84,12.41a.29.29,0,0,1-.45.2c-.71-.51-1.41-1-2.08-1.57-.07-.06,0-.19.08-.15.65.32,1.27.67,1.9,1,.1-4,.41-8,.62-12S326.86,210.12,327.25,206Z" style="fill:#263238"></path><path d="M378.21,267.69s-67.3,9.34-67.3,9.35c.19,1.32-3.56-53.24,9.5-87.45.89-2.33,11.14-6.13,16.4-2.48C359.86,203.11,378.33,268.55,378.21,267.69Z" style="fill:#01B764"></path><path d="M338.4,188.3,319.88,191a2,2,0,0,1,.12-.31l18.08-2.67A3.92,3.92,0,0,1,338.4,188.3Zm5.1,4.9L317.94,197a1.71,1.71,0,0,0-.09.3l25.88-3.8Zm4.26,5.32-31.48,4.64c0,.1,0,.2-.07.3L348,198.79Zm3.65,5.41-36.48,5.37-.06.31,36.7-5.41Zm3.24,5.47-40.82,6c0,.1,0,.2-.05.3l41-6Zm3,5.51-44.68,6.58c0,.1,0,.2,0,.3l44.86-6.6C357.71,215.1,357.66,215,357.61,214.91Zm2.74,5.54-48.14,7.09,0,.3,48.3-7.11Zm2.56,5.57-51.27,7.55,0,.3L363,226.3A2.39,2.39,0,0,1,362.91,226Zm2.41,5.59-54.12,8c0,.1,0,.2,0,.3l54.25-8C365.4,231.8,365.36,231.71,365.32,231.61Zm2.29,5.61-56.73,8.35c0,.1,0,.19,0,.29l56.86-8.37C367.68,237.4,367.64,237.31,367.61,237.22Zm2.17,5.63-59.11,8.7a2.81,2.81,0,0,0,0,.29l59.21-8.72Zm2.07,5.64-61.28,9a1.4,1.4,0,0,0,0,.29l61.38-9C371.91,248.67,371.88,248.58,371.85,248.49Zm2,5.65-63.27,9.32v.28l63.36-9.32Zm1.89,5.66-65.07,9.58c0,.1,0,.2,0,.3l65.15-9.59Zm1.8,5.69-66.67,9.81c0,.1,0,.2,0,.29l66.74-9.82C377.58,265.68,377.55,265.58,377.52,265.49Z" style="opacity:0.1"></path><path d="M326.41,210.9,337,209.4s2,10.87,2,11.17-5.09,4.43-5.55,4.26-5.47-1.56-5.63-1.87S326.41,210.9,326.41,210.9Z" style="opacity:0.1"></path><rect x="245.32" y="229.7" width="65.53" height="72.56" style="fill:#01B764"></rect><rect x="245.32" y="229.7" width="65.53" height="72.56" style="opacity:0.1"></rect><rect x="211.49" y="229.7" width="33.83" height="72.56" transform="translate(456.81 531.96) rotate(180)" style="fill:#01B764"></rect><polygon points="272.53 245.38 273.91 245.38 274.95 245.38 275.55 244.17 276.38 245.38 277.52 242.9 278.59 245.38 281.65 245.38 283.06 245.38 283.56 243.72 284.04 245.38 284.95 245.38 284.95 229.7 272.53 229.7 272.53 245.38" style="fill:#fff"></polygon><g style="opacity:0.1"><path d="M213.82,297.26q3.77-7.74,7.45-15.52l7.34-15.61,7.25-15.68q3.6-7.84,7.13-15.75-3.75,7.74-7.45,15.53l-7.34,15.6L221,281.51Q217.35,289.36,213.82,297.26Z"></path><path d="M213.82,234.7q3.54,7.91,7.14,15.75l7.24,15.68,7.34,15.61q3.69,7.78,7.45,15.52-3.53-7.89-7.13-15.75l-7.25-15.68-7.34-15.6Q217.58,242.43,213.82,234.7Z"></path></g><polygon points="321.73 245.39 256.21 245.39 245.33 229.69 310.85 229.69 321.73 245.39" style="fill:#01B764"></polygon><g style="opacity:0.2"><polygon points="321.73 245.39 256.21 245.39 245.33 229.69 310.85 229.69 321.73 245.39"></polygon></g><polygon points="234.46 245.4 200.72 245.4 211.6 229.7 245.33 229.7 234.46 245.4" style="fill:#01B764"></polygon><polygon points="234.46 245.4 200.72 245.4 211.6 229.7 245.33 229.7 234.46 245.4" style="opacity:0.1"></polygon><path d="M323.89,198.38c3.31.31,9.46-4.4,11.11-9.29.11-.34-.93-3.48-2-7.36-.65-2.36-1.32-5-1.75-7.45-.09-.5-14.71,6.48-14.71,6.48a40,40,0,0,1,3.16,9.15,6,6,0,0,1,.07,1,1,1,0,0,0,0,.17C319.79,193.07,320.35,198,323.89,198.38Z" style="fill:#c95f50"></path><path d="M319.75,190.93a1,1,0,0,0,0,.17,10.79,10.79,0,0,0,1.59-.2c9-1.81,9.38-13.56,9.33-16.51-2.66.87-14.16,6.37-14.16,6.37a40,40,0,0,1,3.16,9.15A6,6,0,0,1,319.75,190.93Z" style="fill:#263238"></path><path d="M330.68,154.69c2.47,5.24,1.88,21.49-1.5,25.58-4.91,5.94-14.09,7.78-19.42,1.62-5.18-6-4-27.14-.14-31C315.34,145.26,327,147,330.68,154.69Z" style="fill:#c95f50"></path><path d="M316.62,166.41s.08.06.08.1c-.07,1.1,0,2.36,1,2.76a0,0,0,0,1,0,.06C316.5,169.12,316.38,167.44,316.62,166.41Z" style="fill:#263238"></path><path d="M317.63,165.3c1.77-.08,1.79,3.46.16,3.53S316.15,165.37,317.63,165.3Z" style="fill:#263238"></path><path d="M310.28,166.64s-.09.05-.09.1c.05,1.09-.09,2.35-1.08,2.72,0,0,0,.07,0,.07C310.33,169.35,310.49,167.67,310.28,166.64Z" style="fill:#263238"></path><path d="M309.29,165.5c-1.76-.12-1.87,3.42-.24,3.53S310.77,165.6,309.29,165.5Z" style="fill:#263238"></path><path d="M319,163.67a11.67,11.67,0,0,1-1.37-.47,2.38,2.38,0,0,1-1.31-.75.74.74,0,0,1,.12-.9,1.82,1.82,0,0,1,1.86-.21,2.71,2.71,0,0,1,1.58,1.17A.79.79,0,0,1,319,163.67Z" style="fill:#263238"></path><path d="M307.91,163.73a13.09,13.09,0,0,0,1.4-.37,2.36,2.36,0,0,0,1.36-.66.75.75,0,0,0-.05-.91,1.84,1.84,0,0,0-1.85-.33,2.65,2.65,0,0,0-1.65,1A.79.79,0,0,0,307.91,163.73Z" style="fill:#263238"></path><path d="M317.71,176.57c-.26.26-.52.61-.92.65a2.72,2.72,0,0,1-1.18-.27s-.07,0-.05.06a1.49,1.49,0,0,0,1.4.59,1.17,1.17,0,0,0,.85-1C317.83,176.56,317.74,176.53,317.71,176.57Z" style="fill:#263238"></path><path d="M316.53,173.3a3.73,3.73,0,0,1-2.48,1.68,4.61,4.61,0,0,1-1.34.07,1,1,0,0,1-.25,0l-.24,0a.29.29,0,0,1-.23-.25h0a.49.49,0,0,0,0-.12h0v-.1c0-.84,0-2.13,0-2.13-.31.16-1.87.88-1.85.44a56.1,56.1,0,0,1,1.36-11.3c0-.12.21-.09.2,0,0,3.51-.71,7-.81,10.52a6.53,6.53,0,0,1,1.76-.54c.12,0-.18,2.47-.14,2.85a.1.1,0,0,0,0,0,5.15,5.15,0,0,0,3.85-1.23C316.51,173.14,316.6,173.21,316.53,173.3Z" style="fill:#263238"></path><path d="M313.21,174.62A4.42,4.42,0,0,0,315,176a2.06,2.06,0,0,0,1.21.07c.87-.24.89-1,.72-1.73a4.64,4.64,0,0,0-.4-1A5.71,5.71,0,0,1,313.21,174.62Z" style="fill:#263238"></path><path d="M315,176a2.06,2.06,0,0,0,1.21.07c.87-.24.89-1,.72-1.73A2.06,2.06,0,0,0,315,176Z" style="fill:#ff99ba"></path><path d="M307.32,156.3c.59-1.4,1.27-2.8,2.1-3.08s1.41,1.75,3.31,1.86c2.57.15,3.79-2.22,7.38-2.51,5.16-.4,7.47,3.89,7.66,11.21.17,6.54,4.13,7.12,4.13,7.12s2.27-14.44-1.84-19.18-13.46-6.77-19.68-2.15C308.11,151.25,307.32,156.3,307.32,156.3Z" style="fill:#263238"></path><path d="M328.58,168.35s2.95-5.58,5.44-4.59.72,8.77-1.89,10.13a2.8,2.8,0,0,1-3.91-1Z" style="fill:#c95f50"></path><path d="M333.45,166a0,0,0,0,1,0,.07c-1.82,1-2.61,2.92-3.09,4.85a1.55,1.55,0,0,1,2.25-.71.06.06,0,0,1,0,.11,1.72,1.72,0,0,0-1.81.84,8.47,8.47,0,0,0-.71,1.63c-.07.18-.39.13-.35-.07v0C329.39,170.21,330.86,166.55,333.45,166Z" style="fill:#263238"></path><path d="M345.75,199.71c6.7,14.92,21.52,45.5,17.71,57-5,15.1-31.17,31.75-37.94,36.42-2.95,2-17.63-16.79-16.73-20.51s28.41-25.51,29.89-28-4.74-27.25-5.79-41.1C331.55,186.09,340.07,187.08,345.75,199.71Z" style="fill:#c95f50"></path><path d="M302,282.71c.8-1.64-.06-2.07-3-.65s-13.28,9.52-15.8,5.67,12.26-15.07,17.31-17.06,13.9-3.45,13.9-3.45C312,270,306.73,277.24,302,282.71Z" style="fill:#c95f50"></path><path d="M332.68,287.29c-7.16,7.53-15.6,17.33-26.86,20.55a5.84,5.84,0,0,1-3.8-.11c-5,1.53-7.25-.38-7.25-.38-5.12,0-7.13-2.27-7.13-2.27s-5.92,1.74-7.56-1.66c-1.85-3.81,6.82-5.51,11-9.35,9.62-8.82,20.83-24,23.35-26.85Z" style="fill:#c95f50"></path><path d="M307.67,291.92a85.2,85.2,0,0,1-8.86,7.23,83.87,83.87,0,0,1-11.12,5.8c-.12.05-.05.22.08.19a44.38,44.38,0,0,0,20-13.1C307.91,291.9,307.81,291.79,307.67,291.92Z" style="fill:#263238"></path><path d="M313.83,297c-2.94,2.31-8.14,6.34-19.11,10.29,0,0,0,.07,0,.06a39.81,39.81,0,0,0,19.2-10.21C314.11,296.93,314,296.79,313.83,297Z" style="fill:#263238"></path><path d="M317.09,299.71c-5.15,3.75-8.87,5.46-15,8,0,0,0,.08,0,.07,7.32-2.13,9.74-3.74,15.19-7.89C317.43,299.73,317.29,299.57,317.09,299.71Z" style="fill:#263238"></path><path d="M334,222.6l25,1.2s-11.57-24.94-17-31.31c-6.16-7.18-8.48-2.46-9.24,6.5S334,222.6,334,222.6Z" style="fill:#01B764"></path><path d="M334,222.6l25,1.2s-11.57-24.94-17-31.31c-6.16-7.18-8.48-2.46-9.24,6.5S334,222.6,334,222.6Z" style="opacity:0.1"></path><path d="M335.13,218.12c3.2-.28,12.91.25,14.52.32.84,0,4.22.33,5.06.36.11,0,.08.17,0,.17-1.62-.06-3.24.05-4.86,0s-11.51-.22-14.71-.73A.07.07,0,0,1,335.13,218.12Z" style="fill:#263238"></path><path d="M347.83,201.85c-.05-.1.11-.17.16-.07,1.22,2,2.39,4,3.52,6.07a20.36,20.36,0,0,0-1.31-3.43s.05-.08.08,0a16.68,16.68,0,0,1,1.5,4c.79,1.43,1.56,2.86,2.32,4.31,1.92,3.66,3.9,7.32,5.61,11.1a.29.29,0,0,1-.29.4c-.87-.07-1.73-.17-2.59-.29-.09,0-.1-.16,0-.17.72-.06,1.43-.07,2.15-.09-2-3.49-3.73-7.09-5.58-10.64S349.6,205.6,347.83,201.85Z" style="fill:#263238"></path><path d="M332.5,212c-.26-1.29-.53-2.58-.75-3.88,0,0,0,0,0,0,.23.94.44,1.89.65,2.84-.11-1.94-.18-3.87-.16-5.8a0,0,0,0,1,.05,0c.4,2.9.64,5.83,1,8.74s.61,5.72.88,8.58c.56.12,1.13.22,1.7.32a.09.09,0,0,1,0,.17c-.63,0-1.26,0-1.89,0a.28.28,0,0,1-.32-.23C333.14,219.17,332.74,215.58,332.5,212Z" style="fill:#263238"></path></g><g id="freepik--Boxes--inject-85"><rect x="138.32" y="352.62" width="94.57" height="78.13" style="fill:#01B764"></rect><rect x="232.88" y="352.62" width="37.47" height="78.14" style="fill:#01B764"></rect><rect x="232.88" y="352.62" width="37.47" height="78.14" style="opacity:0.1"></rect><path d="M267.77,425.38q-4.15-8.34-8.25-16.73l-8.13-16.8-8-16.88q-4-8.46-7.9-17,4.16,8.34,8.25,16.73l8.12,16.8,8,16.88Q263.86,416.87,267.77,425.38Z" style="fill:#01B764"></path><path d="M267.77,358q-3.91,8.52-7.9,17l-8,16.88-8.12,16.8q-4.09,8.4-8.25,16.73,3.9-8.52,7.9-17l8-16.88,8.13-16.8Q263.62,366.33,267.77,358Z" style="fill:#01B764"></path><polygon points="192.29 369.51 190.8 369.51 189.67 369.51 189.03 368.2 188.13 369.51 186.92 366.83 185.76 369.51 182.46 369.51 180.95 369.51 180.41 367.72 179.89 369.51 178.91 369.51 178.91 352.62 192.29 352.62 192.29 369.51" style="fill:#fff"></polygon><rect x="254.7" y="352.62" width="70.55" height="78.13" style="fill:#01B764"></rect><rect x="325.25" y="352.62" width="36.43" height="78.13" style="fill:#01B764"></rect><rect x="325.25" y="352.62" width="36.43" height="78.13" style="opacity:0.1"></rect><g style="opacity:0.1"><path d="M320.08,425.37q-7.77-8.33-15.4-16.72l-15.18-16.8-15-16.88q-7.47-8.46-14.76-17,7.77,8.34,15.4,16.72l15.18,16.81,15,16.88Q312.78,416.86,320.08,425.37Z"></path><path d="M320.08,358q-7.31,8.52-14.76,17l-15,16.88-15.18,16.8q-7.62,8.39-15.4,16.72,7.31-8.5,14.76-17l15-16.88,15.18-16.81Q312.3,366.34,320.08,358Z"></path></g><rect x="350.17" y="417.53" width="6.38" height="9.01" style="fill:#fff"></rect><rect x="154.08" y="302.09" width="80.55" height="50.52" style="fill:#01B764"></rect><rect x="154.08" y="302.09" width="80.55" height="50.52" style="opacity:0.1"></rect><rect x="234.64" y="302.1" width="36.43" height="50.53" style="fill:#01B764"></rect><rect x="234.64" y="302.1" width="36.43" height="50.53" style="opacity:0.2"></rect><path d="M268.56,349.64q-4.05-5.2-8-10.46l-7.91-10.52-7.8-10.56q-3.89-5.3-7.68-10.62,4,5.22,8,10.46l7.9,10.52,7.8,10.57Q264.76,344.31,268.56,349.64Z" style="fill:#01B764"></path><path d="M268.56,307.48q-3.81,5.32-7.69,10.62l-7.8,10.56-7.9,10.52q-4,5.25-8,10.46,3.79-5.33,7.68-10.61l7.8-10.57,7.91-10.52Q264.5,312.69,268.56,307.48Z" style="fill:#01B764"></path></g><g id="freepik--speech-bubble--inject-85"><path d="M187.5,87.54a21.74,21.74,0,0,1-36.33,13.75l-10.87,1.59,5.44-9.4A21.52,21.52,0,0,1,144.25,83a21.74,21.74,0,0,1,43.25,4.53Z" style="fill:#fff"></path><path d="M187.5,87.54a22,22,0,0,1-4.39,11,24.91,24.91,0,0,1-2,2.26,25.2,25.2,0,0,1-2.3,2,21.9,21.9,0,0,1-11.09,4.31,20.33,20.33,0,0,1-3,.06,19,19,0,0,1-3-.31A22,22,0,0,1,151,101.52l.26.08-10.87,1.66-.78.13.39-.7,5.41-9.42,0,.37a21.95,21.95,0,0,1,17.43-30.11,21.7,21.7,0,0,1,18.21,6A21.89,21.89,0,0,1,187.5,87.54Zm0,0A21.5,21.5,0,0,0,162.84,64a21.33,21.33,0,0,0-9,3.55,22.38,22.38,0,0,0-6.5,7.09,21.45,21.45,0,0,0-2.76,9.2,21.74,21.74,0,0,0,1.53,9.47l.08.19-.11.18-5.47,9.39-.39-.58L151.13,101l.15,0,.11.1a21.43,21.43,0,0,0,10.41,5.36,19.33,19.33,0,0,0,2.95.36,20.94,20.94,0,0,0,8.78-1.29,20.1,20.1,0,0,0,5.24-2.82,26.28,26.28,0,0,0,2.3-1.92,24.66,24.66,0,0,0,2-2.24A21.85,21.85,0,0,0,187.5,87.54Z" style="fill:#263238"></path><polygon points="163.33 97.67 154.04 88.27 157.16 85.19 162.59 90.68 173.86 73.02 177.55 75.37 163.33 97.67" style="fill:#01B764"></polygon></g><g id="freepik--character-1--inject-85"><path d="M93.44,106.82c-3.66-.64-12.87,2.36-15.77,7.34S75.38,127,77,127.64s8.51-.2,13.13-3S95.25,107.13,93.44,106.82Z" style="fill:#263238"></path><path d="M93.45,106.84c.12,0,.13-.24,0-.23-3.18.06-6.53,1.28-9.51,2.29a18.35,18.35,0,0,0-6.78,3.5A8.52,8.52,0,0,0,74.34,119a17.61,17.61,0,0,0,2.06,8.59c0,.07.18,0,.15,0-1.69-5.22-3.26-11.62,1.83-15.46C82.7,108.78,88.39,108.17,93.45,106.84Z" style="fill:#263238"></path><path d="M77.48,126.24c-3.15.55-11.12,7-12.24,13s4.18,14.78,5.76,15.36,8.33-5.51,10.43-9.86c1.4-2.9,0-6.16-.79-9.41C79.4,130.56,78,126.16,77.48,126.24Z" style="fill:#263238"></path><path d="M83.29,143.94c.67-6.19-3.08-12.11-5.42-17.57,0-.06-.12,0-.1,0,1.39,5.27,4.81,9.91,5.15,15.47a10.19,10.19,0,0,1-3.44,8.74c-2.29,1.86-5.21,2.8-7.91,3.89-.17.07,0,.33.13.27C77.08,152.75,82.6,150.32,83.29,143.94Z" style="fill:#263238"></path><path d="M76.82,126.84a.14.14,0,0,0-.12-.25c-4.41,2.34-9.7,5.69-11.91,10.37-2.4,5.06.45,10.12,3,14.48a0,0,0,1,0,.09,0c-2.5-4.43-5.17-10-2.41-14.9C67.82,132.24,72.66,129.11,76.82,126.84Z" style="fill:#263238"></path><path d="M71.57,153.84c2.18,1,5.47,4.41,6.43,8.62,1.62,7.2,4.28,5.61,12.33,7.09,6.8,1.24,8.66,8.67,5.3,12.59,0,0,1.81-4.75-2.84-6.76-5.56-2.4-17.6,4-24.2-3.29C60.05,162.67,71.57,153.84,71.57,153.84Z" style="fill:#263238"></path><path d="M74.62,157c-.09-.1.06-.26.16-.17a10.72,10.72,0,0,1,2.37,3c.77,1.5.9,3.17,1.55,4.7,1.68,3.9,6.48,3.49,10,3.54,4.7.06,8.62,2.7,9.2,7.61a.06.06,0,1,1-.11,0A8.37,8.37,0,0,0,92.41,169c-2.81-1-5.86-.21-8.73-.73-2-.35-4-1.07-5-2.91a16.34,16.34,0,0,1-1.07-3.28A11.59,11.59,0,0,0,74.62,157Z" style="fill:#263238"></path><path d="M70.39,154.79s.11,0,.07.07c-2.5,2.77-5.15,5.56-5.69,9.43-.59,4.16,1.77,8.16,5.15,10.46,3.79,2.58,7.59,1,11.6,0,2.89-.74,5.86-1.26,8.79-.42.09,0,0,.17,0,.16-4.69-.81-8.85.81-13.35,1.81a9.14,9.14,0,0,1-9.23-3.06C62.05,167.19,64.86,159.74,70.39,154.79Z" style="fill:#263238"></path><path d="M90.52,103.62c-1.07-1.24-3,.44-1.9,1.68S91.58,104.85,90.52,103.62Z" style="fill:#01B764"></path><path d="M91.59,105.71c-1.06-1.23-3,.45-1.89,1.68S92.66,107,91.59,105.71Z" style="fill:#01B764"></path><path d="M93,107.61c-1.07-1.23-3,.44-1.9,1.68S94.09,108.85,93,107.61Z" style="fill:#01B764"></path><path d="M94.65,109.25c-1.06-1.23-3,.45-1.89,1.68S95.72,110.49,94.65,109.25Z" style="fill:#01B764"></path><path d="M96.58,110.62c-1.07-1.23-3,.45-1.9,1.68S97.64,111.86,96.58,110.62Z" style="fill:#01B764"></path><path d="M98.64,111.59c-1.07-1.23-3,.44-1.9,1.68S99.7,112.83,98.64,111.59Z" style="fill:#01B764"></path><path d="M176.41,443.26c-2.31.72-69.82-.74-72.28-2.38-.95-.61,4.84-64.56,4.84-64.56l42.81.82-4.87,42.77s24.91,11.81,27.43,13.9S178.73,442.54,176.41,443.26Z" style="fill:#d3766a"></path><path d="M176.42,443.26c-2.31.72-69.83-.74-72.29-2.39-.3-.18-.39-6.68.69-15.13,12.24,2.05,55.93,8.76,59.34,6.76,2.37-1.4.27-3.58-1.68-5,5.58,2.78,10.79,5.45,11.86,6.35C176.85,435.9,178.72,442.55,176.42,443.26Z" style="fill:#263238"></path><path d="M148.12,409.66l-42-.59s8.32-100.67,8-102.61C113.62,304,83.8,187.05,83.8,187.05h40.12s31.63,109,32.77,119.49C158.53,323.5,148.12,409.66,148.12,409.66Z" style="fill:#37474f"></path><path d="M109.86,399.58c2.49-.18,5-.15,7.49-.18s5,0,7.48,0c5,.05,10,.13,15,.27,1.36,0,2.72.08,4.09.14s2.91.32,4.36.37a.09.09,0,0,1,0,.18c-1.23,0-2.45.19-3.68.23s-2.54,0-3.81,0l-7.48,0c-5,0-10-.11-14.95-.31-2.81-.12-5.65-.15-8.45-.44A.13.13,0,0,1,109.86,399.58Z" style="fill:#263238"></path><path d="M92.63,196.5c3.59,12.71,6.87,25.53,10.08,38.34s6.42,25.64,9.61,38.46q2.4,9.63,4.79,19.24c1.55,6.24,3.36,12.52,3.74,19s-.44,13.17-1,19.7-1.1,13.12-1.68,19.69c-1.15,13.12-2.25,26.26-3.68,39.36-.17,1.64-.35,3.28-.52,4.92,0,.14-.23.14-.22,0,.87-13.14,1.78-26.27,2.83-39.39q.78-9.85,1.6-19.69c.54-6.55,1.3-13.13,1.51-19.7s-1-13-2.6-19.38-3.15-12.55-4.72-18.83q-4.82-19.21-9.6-38.46c-3.56-14.36-7.12-28.74-10.26-43.2A.06.06,0,1,1,92.63,196.5Z" style="fill:#263238"></path><path d="M83.8,187.06s12.8,50.16,21.75,85.47l17.07-85.47Z" style="fill:#263238"></path><path d="M126,443.41c-2.31.73-69.82-.73-72.28-2.38-.95-.61,2.57-64.59,2.57-64.59l42.25.82-2,42.81s24.91,11.8,27.43,13.9S128.31,442.7,126,443.41Z" style="fill:#d3766a"></path><path d="M126,443.41c-2.31.72-69.82-.73-72.28-2.38-.3-.19-.23-6.51,0-15.14,12.24,2.05,56.61,8.77,60,6.76,2.37-1.39.28-3.57-1.67-5,5.58,2.78,10.79,5.46,11.86,6.36C126.43,436.05,128.31,442.7,126,443.41Z" style="fill:#263238"></path><path d="M122.62,187s-1.17,19.18-5.75,34.33c-.37,1.25-.77,2.48-1.19,3.66a71,71,0,0,0-11.64,5.8s-2.89,73.36-2.84,77.92C101.39,325.8,97,408.82,97,408.82l-42.39-.41s4.4-93.88,4.42-100.12c0-10,8.89-121.24,8.89-121.24Z" style="fill:#37474f"></path><path d="M113.36,212.8l.48-3.18c.3-2,.7-3.88,1-5.82.77-4.39,1.58-8.8,2.55-13.16,0-.1.21-.08.19,0-.17,1.76-.37,3.52-.62,5.27s-.42,3.51-.67,5.26c-.49,3.47-1,7-1.56,10.41-.23,1.33-1.06,3.72.86,4.13,1.51.33,2.63-1.16,3.07-2.41a29.07,29.07,0,0,0,1-4.8c.32-1.75.59-3.51.84-5.27.54-3.84,1.14-7.67,1.76-11.49,0-.11.2-.08.19,0a115.81,115.81,0,0,1-.85,11.76c-.25,1.87-.52,3.73-.84,5.59a19.72,19.72,0,0,1-1.29,5.2,4.21,4.21,0,0,1-3.17,2.55h-.09a.13.13,0,0,1,.06.11c0,.63,0,1.26-.07,1.88s-.19,1.22-.31,1.83a12.93,12.93,0,0,1-.47,1.83c-.11.28-.21.56-.34.84s-.33.5-.5.77c-.06.11-.19,0-.2-.07h0c0-.1,0-.2,0-.3v0h0a4.9,4.9,0,0,1,0-.54,8.76,8.76,0,0,1,.18-.89c.13-.59.29-1.18.45-1.77s.28-1.17.43-1.76.36-1.19.5-1.8c0,0,0,0,0-.06a2.77,2.77,0,0,1-2.68-1.68A4.88,4.88,0,0,1,113.36,212.8Z" style="fill:#263238"></path><path d="M100.61,232.29a33.92,33.92,0,0,1,4-2.63,38.42,38.42,0,0,1,4.55-2.36c3.06-1.33,6.22-2.24,9.39-3.28.09,0,.15.12.06.16-3.06,1.22-6,2.84-9,4.29q-2.19,1.07-4.42,2c-1.48.66-3,1.43-4.49,2C100.61,232.54,100.52,232.36,100.61,232.29Z" style="fill:#263238"></path><path d="M76.69,205.57a26.58,26.58,0,0,0,6.39-.86c1-.25,1.91-.56,2.85-.87a7.45,7.45,0,0,0,2.58-1.29c1.45-1.26,2.13-3.23,2.76-5a47,47,0,0,0,1.67-6,.09.09,0,0,1,.18,0,23.41,23.41,0,0,1-.87,6.86c-.52,1.89-1.22,4-2.75,5.33a10.74,10.74,0,0,1-5.86,2.14,27,27,0,0,1-7-.09A.12.12,0,0,1,76.69,205.57Z" style="fill:#263238"></path><path d="M62.76,356.8q1.08-20.08,2.28-40.18c1.54-26.65,3-53.31,4.71-80,1-15,1.92-30.07,3.1-45.09a.13.13,0,0,1,.25,0C72,218.4,70.4,245.18,68.85,272S65.72,325.28,64,351.92C63.1,367,61.91,382,61,397a.09.09,0,1,1-.17,0C61.52,383.6,62,370.2,62.76,356.8Z" style="fill:#263238"></path><path d="M56.53,400.2c2.48-.18,5-.15,7.48-.18s5,0,7.48,0c5,.05,10,.13,15,.27,1.36,0,2.73.08,4.09.14s2.91.32,4.36.37a.09.09,0,0,1,0,.18c-1.22,0-2.45.19-3.68.23s-2.54,0-3.81,0c-2.49,0-5,0-7.47,0-5,0-10-.1-15-.31-2.82-.12-5.66-.15-8.46-.43A.13.13,0,0,1,56.53,400.2Z" style="fill:#263238"></path><path d="M105.63,143.65c4.07,10.1,20.24,42.75,30.86,45.06,7,1.51,35.13-1.22,40-7.88,2.11-2.9-1.46-23.14-5.22-22.34s-26.33,3.79-29.1,3-23.55-24.73-31.32-30.67C97.45,120.56,103.44,138.21,105.63,143.65Z" style="fill:#d3766a"></path><path d="M130.27,148.64l-17.7,10.47s-7.45-14.18-10.36-23.46-.41-13.52,10.27-4.29A203,203,0,0,1,130.27,148.64Z" style="fill:#01B764"></path><path d="M111.81,155.47q3.52-2.55,7.17-4.93c1.19-.78,2.38-1.58,3.59-2.33s2.56-1.48,3.81-2.26a.08.08,0,1,1,.09.13c-1.18.8-2.3,1.68-3.48,2.49s-2.46,1.62-3.69,2.42q-3.64,2.38-7.41,4.59C111.82,155.62,111.74,155.52,111.81,155.47Z" style="fill:#263238"></path><path d="M129.34,199.88l-4-22.57s6.15-10.73,2.58-18.44c-1.8-3.9-17.6-28.18-24.25-33-6.24-4.53-15.3.31-18.67,3.86-13,13.68-16.46,38.91-21.12,75.89Z" style="fill:#01B764"></path><path d="M129,161.11a17.45,17.45,0,0,0-2.16-4.58c-.31-.53-1-1.63-1.84-2.91a18.39,18.39,0,0,0-.8-1.81,26.71,26.71,0,0,1-1.33-2.68c0-.09-.18,0-.13.06a28.76,28.76,0,0,1,1.12,2.69c-1.41-2.14-2.89-4.34-3.53-5.24,0-.08-.17,0-.12.07,1.35,1.77,5.78,9.53,6.85,11.5a13.31,13.31,0,0,1,1.55,6.32,29.07,29.07,0,0,1-.88,6.77c-.06.18.13.28.2.1a18.48,18.48,0,0,0,1.26-5A14.76,14.76,0,0,0,129,161.11Z" style="fill:#263238"></path><path d="M102.53,145.64s-4-4.43-.73-6.9,6.45,2.55,6.45,2.55Z" style="fill:#455a64"></path><path d="M133.48,174.41h0l1,5.75.33,1.89-1.75-.81-5.28-2.47h0l-25.36-33.31,5.72-4.35,25.36,33.31Z" style="fill:#455a64"></path><polygon points="134.46 180.16 134.79 182.05 133.04 181.24 134.46 180.16" style="fill:#37474f"></polygon><rect x="101.42" y="142.93" width="8.39" height="1.66" transform="translate(-65.51 93.38) rotate(-37.29)" style="fill:#263238"></rect><rect x="102.54" y="144.39" width="8.39" height="1.66" transform="translate(-66.17 94.36) rotate(-37.29)" style="fill:#263238"></rect><polygon points="103.9 148.43 106.05 146.79 114.04 159.74 113.21 160.3 103.9 148.43" style="fill:#263238"></polygon><path d="M79,137c-16,20-33.43,53.27-24.71,59.6,8,5.77,35.27-1.88,52.24-9.76,3.23-1.5-12-30-15.28-28a95.62,95.62,0,0,1-10.7,5.64c-.94.32,3.9-6.39,8.77-22.11C94.28,126.35,88.17,125.49,79,137Z" style="fill:#d3766a"></path><path d="M133.4,154c.23,3.4-8.21,3.25-8.21,3.25a6.31,6.31,0,0,1,2.77,3.27c.79,2.47-2.74,4.79-2.74,4.79a7.79,7.79,0,0,1,2.37,3.91c.52,2.44-2.71,5.29-2.71,5.29a6.78,6.78,0,0,1-.08,4.75c-1.75,4-8.46,4.49-12.55,5.62A89.52,89.52,0,0,0,98.93,190l-9.6-30.11s17.31-11.78,22.35-11.85C115.93,148,133.05,148.79,133.4,154Z" style="fill:#d3766a"></path><path d="M125.11,157.15c-4.52-1-9.29-1-13.88-.83a.08.08,0,0,0,0,.16c4.57-.17,9.3.88,13.86.89A.11.11,0,0,0,125.11,157.15Z" style="fill:#263238"></path><path d="M125.08,165a12,12,0,0,0-3.17,0c-1.12.09-2.23.19-3.35.31-2.23.24-4.46.54-6.67.89-.1,0-.1.17,0,.16,2.23-.23,4.46-.44,6.69-.58,1.12-.07,2.24-.14,3.35-.19a14.53,14.53,0,0,0,3.16-.3A.16.16,0,0,0,125.08,165Z" style="fill:#263238"></path><path d="M124.79,174.5a8.58,8.58,0,0,0-2.85.17l-3,.38c-2,.24-4.07.48-6.11.65-.1,0-.09.17,0,.16,2.07-.16,4.15-.3,6.22-.48,1-.08,2-.18,3-.28a7.73,7.73,0,0,0,2.74-.5A.06.06,0,0,0,124.79,174.5Z" style="fill:#263238"></path><path d="M83.78,162.31l-17.36-11s9.27-13.06,16.22-19.86,11.86-6.5,8.48,7.21A202.8,202.8,0,0,1,83.78,162.31Z" style="fill:#01B764"></path><path d="M69.32,149q3.87,2,7.64,4.15c1.24.71,2.49,1.41,3.71,2.15s2.48,1.6,3.74,2.36c.09.06,0,.2-.07.15-1.25-.69-2.55-1.29-3.8-2s-2.56-1.45-3.83-2.19c-2.52-1.44-5-2.95-7.45-4.52C69.19,149,69.25,148.92,69.32,149Z" style="fill:#263238"></path><path d="M83.78,162.4c.83-2.92,2-5.72,3-8.59s2-5.79,2.84-8.7a.06.06,0,1,1,.11,0c-.36,1.47-.69,3-1.1,4.42-.2.72-.43,1.45-.66,2.16.15-.26.29-.52.45-.78A26.2,26.2,0,0,1,90,148.69s.09,0,.07.05a26.31,26.31,0,0,1-1.31,2.39c-.34.56-.72,1.1-1.08,1.65L87.25,154a49.5,49.5,0,0,1-3.31,8.43C83.89,162.53,83.76,162.49,83.78,162.4Z" style="fill:#263238"></path><path d="M79.87,164.68c-4.43,2.3-9.44,5.71-12,8.41-.08.08,0,.21.1.14,2.56-2,10.16-6.64,12.12-7.95C80.7,164.87,81.14,164,79.87,164.68Z" style="fill:#263238"></path><polygon points="157.75 190.55 122.39 191.31 137.93 145.59 173.29 144.83 157.75 190.55" style="fill:#ebebeb"></polygon><polygon points="160.17 190.5 124.81 191.25 140.35 145.54 175.71 144.78 160.17 190.5" style="fill:#37474f"></polygon><path d="M144.11,145.46a3.16,3.16,0,0,1-1.48,1.88c-.33.19-.43-.25-.1-.43a2.32,2.32,0,0,0,1-1.18c0-.09.06-.18.08-.26a1.69,1.69,0,0,0,0-.86.54.54,0,0,0-.2-.31l0,0,0,0h-.07a.51.51,0,0,0-.24,0,1,1,0,0,0-.4.27,2.26,2.26,0,0,0-.35.48l-.15.26,0,.06a.36.36,0,0,0,0,.09.25.25,0,0,0,0,.07h-.5a3.6,3.6,0,0,1,.46-.89,1.91,1.91,0,0,1,1.34-.89.79.79,0,0,1,.81.71A2.09,2.09,0,0,1,144.11,145.46Z" style="fill:#c7c7c7"></path><path d="M146.88,145.4a3.16,3.16,0,0,1-1.48,1.88c-.33.19-.43-.25-.1-.43a2.37,2.37,0,0,0,1-1.18,1.25,1.25,0,0,0,.07-.26,1.59,1.59,0,0,0,0-.86.56.56,0,0,0-.21-.31l0,0s0,0,0,0h-.07a.44.44,0,0,0-.25,0,1,1,0,0,0-.4.27,4.78,4.78,0,0,0-.49.74l0,.06a.69.69,0,0,0,0,.1.14.14,0,0,0,0,.06h-.5a3.6,3.6,0,0,1,.46-.89,1.91,1.91,0,0,1,1.34-.89.77.77,0,0,1,.8.71A2,2,0,0,1,146.88,145.4Z" style="fill:#c7c7c7"></path><path d="M149.64,145.34a3.08,3.08,0,0,1-1.47,1.88c-.33.19-.43-.25-.11-.43a2.34,2.34,0,0,0,1-1.18c0-.08.05-.17.07-.26a1.59,1.59,0,0,0,0-.86.56.56,0,0,0-.21-.31l0,0s0,0,0,0a.16.16,0,0,1-.07,0,.44.44,0,0,0-.25,0,1,1,0,0,0-.4.27,2.48,2.48,0,0,0-.34.48,2.2,2.2,0,0,0-.15.26l0,.07a.36.36,0,0,0,0,.09s0,0,0,.06h-.51a4,4,0,0,1,.46-.89,2,2,0,0,1,1.34-.89.78.78,0,0,1,.81.71A2.09,2.09,0,0,1,149.64,145.34Z" style="fill:#c7c7c7"></path><path d="M152.41,145.28a3.08,3.08,0,0,1-1.47,1.88c-.34.19-.44-.25-.11-.43a2.32,2.32,0,0,0,1-1.18,2.41,2.41,0,0,0,.08-.25,1.62,1.62,0,0,0,0-.87.54.54,0,0,0-.2-.31s0,0,0,0h-.11a.43.43,0,0,0-.25,0,1.05,1.05,0,0,0-.4.27,2.11,2.11,0,0,0-.34.48,1.73,1.73,0,0,0-.15.27l0,.06a.41.41,0,0,0,0,.09s0,0,0,.06h-.5a3.91,3.91,0,0,1,.46-.88,1.93,1.93,0,0,1,1.34-.9.78.78,0,0,1,.81.71A2.09,2.09,0,0,1,152.41,145.28Z" style="fill:#c7c7c7"></path><path d="M155.18,145.23a3.16,3.16,0,0,1-1.48,1.88c-.33.18-.43-.26-.1-.43a2.39,2.39,0,0,0,1-1.19,2.41,2.41,0,0,0,.08-.25,1.73,1.73,0,0,0,0-.87.49.49,0,0,0-.2-.3l0,0,0,0h-.07a.4.4,0,0,0-.24,0,1.05,1.05,0,0,0-.4.27,2.55,2.55,0,0,0-.35.48l-.15.27,0,.06a.36.36,0,0,0,0,.09s0,0,0,.06h-.5a3.54,3.54,0,0,1,.46-.88,2,2,0,0,1,1.34-.9.79.79,0,0,1,.81.71A2.13,2.13,0,0,1,155.18,145.23Z" style="fill:#c7c7c7"></path><path d="M158,145.17a3.19,3.19,0,0,1-1.48,1.88c-.33.18-.43-.26-.1-.43a2.35,2.35,0,0,0,1-1.19,1.17,1.17,0,0,0,.07-.25,1.63,1.63,0,0,0,0-.87.54.54,0,0,0-.2-.3l0,0,0,0h-.07a.44.44,0,0,0-.25,0,1.13,1.13,0,0,0-.4.27,2.48,2.48,0,0,0-.34.48,2.34,2.34,0,0,0-.15.27l0,.06a.36.36,0,0,0,0,.09.14.14,0,0,0,0,.06h-.5a3.54,3.54,0,0,1,.46-.88,2,2,0,0,1,1.34-.9.77.77,0,0,1,.8.71A2,2,0,0,1,158,145.17Z" style="fill:#c7c7c7"></path><path d="M160.71,145.11a3.14,3.14,0,0,1-1.47,1.88c-.33.18-.43-.25-.1-.43a2.17,2.17,0,0,0,1.07-1.44,1.63,1.63,0,0,0,0-.87.5.5,0,0,0-.21-.3l0,0,0,0h-.07a.44.44,0,0,0-.25,0,1.13,1.13,0,0,0-.4.27,2.48,2.48,0,0,0-.34.48c-.06.09-.1.18-.15.27l0,.06a.36.36,0,0,0,0,.09s0,0,0,.06h-.51a3.91,3.91,0,0,1,.46-.88,1.93,1.93,0,0,1,1.34-.89.78.78,0,0,1,.81.7A2.13,2.13,0,0,1,160.71,145.11Z" style="fill:#c7c7c7"></path><path d="M163.48,145.05a3.11,3.11,0,0,1-1.47,1.88c-.34.19-.44-.25-.11-.43a2.31,2.31,0,0,0,1-1.19,2.41,2.41,0,0,0,.08-.25,1.62,1.62,0,0,0,0-.87.52.52,0,0,0-.2-.3l0,0,0,0h-.06a.37.37,0,0,0-.25,0,.87.87,0,0,0-.4.27,1.87,1.87,0,0,0-.34.47c-.06.09-.1.18-.15.27l0,.06-.05.09s0,0,0,.06H161a3.91,3.91,0,0,1,.46-.88,1.91,1.91,0,0,1,1.34-.89.78.78,0,0,1,.81.7A2.13,2.13,0,0,1,163.48,145.05Z" style="fill:#c7c7c7"></path><path d="M166.25,145a3.13,3.13,0,0,1-1.48,1.88c-.33.19-.43-.25-.1-.43a2.31,2.31,0,0,0,1-1.19,2.41,2.41,0,0,0,.08-.25,1.69,1.69,0,0,0,0-.86.54.54,0,0,0-.2-.31l0,0,0,0h-.07a.34.34,0,0,0-.24,0,.87.87,0,0,0-.4.27,2,2,0,0,0-.35.48c0,.08-.09.17-.15.26l0,.06a.36.36,0,0,0,0,.09s0,0,0,.06h-.5a3.72,3.72,0,0,1,.46-.88,1.91,1.91,0,0,1,1.34-.89.78.78,0,0,1,.81.7A2.13,2.13,0,0,1,166.25,145Z" style="fill:#c7c7c7"></path><path d="M169,144.93a3.16,3.16,0,0,1-1.48,1.88c-.33.19-.43-.25-.1-.43a2.35,2.35,0,0,0,1-1.19,2.41,2.41,0,0,0,.08-.25,1.69,1.69,0,0,0,0-.86.6.6,0,0,0-.2-.31l0,0,0,0h-.07a.45.45,0,0,0-.25,0,1,1,0,0,0-.4.27,2,2,0,0,0-.34.48,2.2,2.2,0,0,0-.15.26l0,.06a.36.36,0,0,0,0,.09.14.14,0,0,0,0,.06h-.5a3.72,3.72,0,0,1,.46-.88,1.91,1.91,0,0,1,1.34-.89.77.77,0,0,1,.8.7A2,2,0,0,1,169,144.93Z" style="fill:#c7c7c7"></path><path d="M171.78,144.87a3.11,3.11,0,0,1-1.47,1.88c-.33.19-.43-.25-.1-.43a2.17,2.17,0,0,0,1.07-1.44,1.59,1.59,0,0,0,0-.86.56.56,0,0,0-.21-.31l0,0s0,0,0,0H171a.44.44,0,0,0-.25,0,1,1,0,0,0-.4.27,2,2,0,0,0-.34.48,2.2,2.2,0,0,0-.15.26l0,.06a.36.36,0,0,0,0,.09s0,0,0,.06l-.5,0a3.29,3.29,0,0,1,.46-.89,1.9,1.9,0,0,1,1.33-.89.78.78,0,0,1,.81.7A1.91,1.91,0,0,1,171.78,144.87Z" style="fill:#c7c7c7"></path><path d="M174.55,144.81a3.11,3.11,0,0,1-1.47,1.88c-.34.19-.44-.25-.11-.43a2.32,2.32,0,0,0,1-1.18c0-.09.06-.18.08-.26a1.69,1.69,0,0,0,0-.86.62.62,0,0,0-.21-.31l0,0-.05,0h-.06a.54.54,0,0,0-.25,0,1,1,0,0,0-.4.27,1.92,1.92,0,0,0-.34.48,2.2,2.2,0,0,0-.15.26l0,.06a.36.36,0,0,0,0,.09.21.21,0,0,0,0,.07H172a4,4,0,0,1,.46-.89,1.91,1.91,0,0,1,1.34-.89.78.78,0,0,1,.81.71A2.09,2.09,0,0,1,174.55,144.81Z" style="fill:#c7c7c7"></path><path d="M173.45,155.12c1.67,3.91,6.06,8.86,6.32,12a3.65,3.65,0,0,1-2.17,3.75s3.07,1.68,2.83,4.57c-.13,1.5-2.62,2.61-2.62,2.61a4.32,4.32,0,0,1,2,4c-.3,2-2.75,2.85-2.75,2.85s1.65,2.47.68,4.45c-2,4-19.66,3.32-22.14-3.3-1.15-3.09,3.16-2.69,3.16-2.69s-6.06-2.08-6-5.73,5.62-2.78,5.62-2.78S152.55,172.8,153,169c.45-3.94,5.88-2.12,5.88-2.12s-3.83-2.82-2.84-5.64c1.65-4.65,8.86,1.57,12.79.8l2.4-6.33Z" style="fill:#d3766a"></path><path d="M176.77,160.84c-1.26-3.84,3.61-8.33,2.94-12.17-.91-5.2-6.92-.38-8.5,7.06l-.22,6Z" style="fill:#d3766a"></path><path d="M176.72,185.1a.05.05,0,0,1,0,.1,30.69,30.69,0,0,1-18.18-1.81c-.18-.08-.12-.41.09-.36A62.65,62.65,0,0,0,176.72,185.1Z" style="fill:#263238"></path><path d="M177.9,178.1c.07,0,.07.11,0,.12a28.79,28.79,0,0,1-19.71-3.2c-.21-.13-.27-.44,0-.32C162.33,176.81,172.18,178.36,177.9,178.1Z" style="fill:#263238"></path><path d="M158.5,166.5c5.88,3.26,12.21,4.3,18.86,4.44.08,0,.07.12,0,.14-3.27.82-7.5.29-10.76-.4a17.76,17.76,0,0,1-8.21-4C158.3,166.63,158.38,166.43,158.5,166.5Z" style="fill:#263238"></path><path d="M92.25,124.88c.25,1.07,8,7.85,12.93,7.62,1.59-.07-1.15-8.6-1.15-8.6l.15-.64,2-9-10.55-6.79-1.53-.9s-.39,2.5-.84,5.61c0,.14,0,.29-.07.44s-.06.34-.08.51c-.08.46-.15.94-.21,1.41s-.1.71-.14,1.09-.09.75-.14,1.13A58.69,58.69,0,0,0,92.25,124.88Z" style="fill:#d3766a"></path><path d="M93.28,112.18a18.51,18.51,0,0,0,10.9,11.08l2-9-10.55-6.79-1.53-.9S93.73,109.07,93.28,112.18Z" style="fill:#263238"></path><path d="M120.08,103c-1.21,16.13-11,17.23-14.49,17-3.15-.24-13.87-1.46-14.34-17.63s7.42-20.71,14.67-20.54S121.28,86.86,120.08,103Z" style="fill:#d3766a"></path><path d="M91.68,101.25c3.79.65,4.74-5.35,4.74-5.35s4.38.3,5.83-6.61a10.69,10.69,0,0,0,7.1,6.35c1.21.38-2.42-3.5-2.42-3.5s4.24,5.31,13.75,5.1c.67,0,.86-10-5.84-14.48s-13.54-3.67-18.76.17A8.9,8.9,0,0,0,90.32,89C88.91,94,90.2,101,91.68,101.25Z" style="fill:#263238"></path><path d="M94,102.68S91.3,97.13,88.84,98s-1,8.53,1.47,10a2.74,2.74,0,0,0,3.86-.87Z" style="fill:#d3766a"></path><path d="M89.3,100.18s-.06,0,0,.07c1.74,1.06,2.44,2.94,2.83,4.85a1.5,1.5,0,0,0-2.16-.77c-.06,0,0,.11,0,.1a1.7,1.7,0,0,1,1.74.88,8.37,8.37,0,0,1,.63,1.62c.06.18.38.14.34-.06v-.05C93.12,104.46,91.81,100.84,89.3,100.18Z" style="fill:#263238"></path><path d="M117.25,99.82c-.37-.1-.7-.25-1-.38a1.8,1.8,0,0,1-1-.59.58.58,0,0,1,.1-.7,1.43,1.43,0,0,1,1.44-.13,2.09,2.09,0,0,1,1.2.92A.61.61,0,0,1,117.25,99.82Z" style="fill:#263238"></path><path d="M106.92,98.27A10.36,10.36,0,0,0,108,98.2a1.81,1.81,0,0,0,1.12-.29.58.58,0,0,0,.1-.7,1.43,1.43,0,0,0-1.35-.53,2.07,2.07,0,0,0-1.4.55A.61.61,0,0,0,106.92,98.27Z" style="fill:#263238"></path><path d="M108.64,102.65c0-.05-.09,0-.1.08-.09,1.1-.38,2.34-1.42,2.59a0,0,0,0,0,0,.06C108.35,105.35,108.73,103.7,108.64,102.65Z" style="fill:#263238"></path><path d="M107.8,101.39c-1.75-.34-2.3,3.17-.68,3.49S109.26,101.68,107.8,101.39Z" style="fill:#263238"></path><path d="M107.08,101.47c-.34.15-.7.45-1.07.43s-.7-.45-.92-.84c0,0-.06,0-.07,0-.12.67,0,1.4.74,1.61s1.21-.32,1.48-1C107.29,101.61,107.22,101.41,107.08,101.47Z" style="fill:#263238"></path><path d="M114.57,103.52s.07.06.07.1c-.22,1.09-.28,2.36.64,2.88,0,0,0,.07,0,.06C114.09,106.2,114.19,104.5,114.57,103.52Z" style="fill:#263238"></path><path d="M115.73,102.54c1.77.16,1.32,3.69-.32,3.54S114.24,102.41,115.73,102.54Z" style="fill:#263238"></path><path d="M116.43,102.87c.26.22.49.59.82.66s.72-.28,1-.61c0,0,.06,0,0,0-.07.68-.38,1.36-1,1.4s-1-.59-1-1.28C116.21,103,116.33,102.78,116.43,102.87Z" style="fill:#263238"></path><path d="M107.3,111.44c.2.3.39.7.77.81a3,3,0,0,0,1.22,0s.06,0,0,.07a1.5,1.5,0,0,1-1.49.3,1.17,1.17,0,0,1-.66-1.13C107.18,111.4,107.27,111.39,107.3,111.44Z" style="fill:#263238"></path><path d="M112.43,108.16a23.67,23.67,0,0,1-.13,2.43c0,.07-.2.08-.46,0a0,0,0,0,1,0,0,3.7,3.7,0,0,1-3.35-1.88.08.08,0,0,1,.13-.09,5.56,5.56,0,0,0,3.2,1.44c.08-.2-.08-2.84,0-2.83a6.76,6.76,0,0,1,1.68.64c.13-3.45-.3-6.91-.12-10.35a.1.1,0,0,1,.2,0,55.68,55.68,0,0,1,.61,11.15C114.21,109.14,112.72,108.33,112.43,108.16Z" style="fill:#263238"></path><path d="M111.39,110.16a4,4,0,0,1-1.71,1.06,1.77,1.77,0,0,1-1.09,0c-.76-.29-.71-1-.5-1.61a4.31,4.31,0,0,1,.45-.9A5.13,5.13,0,0,0,111.39,110.16Z" style="fill:#263238"></path><path d="M109.68,111.22a1.77,1.77,0,0,1-1.09,0c-.76-.29-.71-1-.5-1.61A1.86,1.86,0,0,1,109.68,111.22Z" style="fill:#ff9cbd"></path><path d="M119.82,87c-1.86-.44-12.2-.14-16.85,1.86s-12.9,8.69-13.32,9-2.55-16.7,11.27-19.81C116,74.72,119.82,87,119.82,87Z" style="fill:#01B764"></path><path d="M90.44,97.22s9.14-12,14.22-14.81,16.45-4.31,23.48-1.21c5.49,2.41-7.9,9.47-7.9,9.47A3.8,3.8,0,0,0,118.1,88c-3.42-1.36-9.92-.31-13.63.93C99.81,90.52,90.44,97.22,90.44,97.22Z" style="fill:#01B764"></path><path d="M90.44,97.22s9.14-12,14.22-14.81,16.45-4.31,23.48-1.21c5.49,2.41-7.9,9.47-7.9,9.47A3.8,3.8,0,0,0,118.1,88c-3.42-1.36-9.92-.31-13.63.93C99.81,90.52,90.44,97.22,90.44,97.22Z" style="opacity:0.2"></path><path d="M104,123.88l-2.18,7.39-9.71-8.16-2.23,3.12s10,13.5,10,12.84l2.35-6.41,4.64,3.87-1.36-10.69Z" style="fill:#01B764"></path><path d="M106.55,131.2c-.29-1.75-.52-3.53-.89-5.27,0-.06-.11-.08-.12,0-.19,1.74.93,8.46,1.08,10.08l0,0c-.2-.17-4.29-3.38-4.32-3.32-.54,1-2.27,5.71-2.38,6.13-1.59-2.15-7.62-9.91-9.44-11.91a.06.06,0,0,0-.1.07c1.44,2.29,9.44,12.76,9.54,12.72a68.72,68.72,0,0,0,2.45-6.78c.71.72,4.88,4.39,4.87,4.12C107.13,135.23,106.83,133,106.55,131.2Z" style="fill:#263238"></path></g></svg>