<?xml version="1.0" encoding="utf-8"?>
<svg width="512px" height="512px" viewbox="0 0 512 512" version="1.1" xmlns:xlink="http://www.w3.org/1999/xlink" xmlns="http://www.w3.org/2000/svg">
  <g id="1384005">
    <path d="M512 256C512 114.6 397.4 0 256 0C114.6 0 0 114.6 0 256C0 397.4 114.6 512 256 512C257.5 512 259 512 260.5 511.9L260.5 312.7L205.5 312.7L205.5 248.6L260.5 248.6L260.5 201.4C260.5 146.7 293.9 116.9 342.7 116.9C366.1 116.9 386.2 118.6 392 119.4L392 176.6L358.4 176.6C331.9 176.6 326.7 189.2 326.7 207.7L326.7 248.5L390.2 248.5L381.9 312.6L326.7 312.6L326.7 502.1C433.7 471.4 512 372.9 512 256L512 256Z" id="Shape" fill="#FFFFFF" fill-rule="evenodd" stroke="none" />
  </g>
</svg>