<?xml version="1.0" encoding="utf-8"?>
<svg width="512px" height="512px" viewbox="0 0 512 512" version="1.1" xmlns:xlink="http://www.w3.org/1999/xlink" xmlns="http://www.w3.org/2000/svg">
  <g id="instagram">
    <path d="M98 49C98 76.0625 76.0625 98 49 98C21.9375 98 0 76.0625 0 49C0 21.9375 21.9375 0 49 0C76.0625 0 98 21.9375 98 49L98 49Z" transform="translate(207 207)" id="Shape" fill="#FFFFFF" fill-rule="evenodd" stroke="none" />
    <path d="M235.109 33.8164C232.754 27.4336 228.996 21.6563 224.113 16.9141C219.371 12.0313 213.598 8.27344 207.211 5.91797C202.031 3.90625 194.25 1.51172 179.918 0.859375C164.414 0.152344 159.766 0 120.516 0C81.2617 0 76.6133 0.148438 61.1133 0.855469C46.7813 1.51172 38.9961 3.90625 33.8203 5.91797C27.4336 8.27344 21.6563 12.0313 16.918 16.9141C12.0352 21.6563 8.27734 27.4297 5.91797 33.8164C3.90625 38.9961 1.51172 46.7813 0.859375 61.1133C0.152344 76.6133 0 81.2617 0 120.516C0 159.766 0.152344 164.414 0.859375 179.918C1.51172 194.25 3.90625 202.031 5.91797 207.211C8.27734 213.598 12.0313 219.371 16.9141 224.113C21.6563 228.996 27.4297 232.754 33.8164 235.109C38.9961 237.125 46.7813 239.52 61.1133 240.172C76.6133 240.879 81.2578 241.027 120.512 241.027C159.77 241.027 164.418 240.879 179.914 240.172C194.246 239.52 202.031 237.125 207.211 235.109C220.031 230.164 230.164 220.031 235.109 207.211C237.121 202.031 239.516 194.25 240.172 179.918C240.879 164.414 241.027 159.766 241.027 120.516C241.027 81.2617 240.879 76.6133 240.172 61.1133C239.52 46.7813 237.125 38.9961 235.109 33.8164L235.109 33.8164ZM120.516 195.996C78.8242 195.996 45.0273 162.203 45.0273 120.512C45.0273 78.8203 78.8242 45.0273 120.516 45.0273C162.203 45.0273 196 78.8203 196 120.512C196 162.203 162.203 195.996 120.516 195.996L120.516 195.996ZM198.984 59.6836C189.242 59.6836 181.344 51.7852 181.344 42.043C181.344 32.3008 189.242 24.4023 198.984 24.4023C208.727 24.4023 216.625 32.3008 216.625 42.043C216.621 51.7852 208.727 59.6836 198.984 59.6836L198.984 59.6836Z" transform="translate(135.48438 135.48828)" id="Shape" fill="#FFFFFF" fill-rule="evenodd" stroke="none" />
    <path d="M256 0C114.637 0 0 114.637 0 256C0 397.363 114.637 512 256 512C397.363 512 512 397.363 512 256C512 114.637 397.363 0 256 0L256 0ZM402.113 316.605C401.402 332.254 398.914 342.938 395.281 352.289C387.645 372.035 372.035 387.645 352.289 395.281C342.941 398.914 332.254 401.398 316.609 402.113C300.934 402.828 295.926 403 256.004 403C216.078 403 211.074 402.828 195.395 402.113C179.75 401.398 169.063 398.914 159.715 395.281C149.902 391.59 141.02 385.805 133.676 378.324C126.199 370.984 120.414 362.098 116.723 352.289C113.09 342.941 110.602 332.254 109.891 316.609C109.168 300.93 109 295.922 109 256C109 216.078 109.168 211.07 109.887 195.395C110.598 179.746 113.082 169.063 116.715 159.711C120.406 149.902 126.195 141.016 133.676 133.676C141.016 126.195 149.902 120.41 159.711 116.719C169.063 113.086 179.746 110.602 195.395 109.887C211.07 109.172 216.078 109 256 109C295.922 109 300.93 109.172 316.605 109.891C332.254 110.602 342.938 113.086 352.289 116.715C362.098 120.406 370.984 126.195 378.328 133.676C385.805 141.02 391.594 149.902 395.281 159.711C398.918 169.063 401.402 179.746 402.117 195.395C402.832 211.07 403 216.078 403 256C403 295.922 402.832 300.93 402.113 316.605L402.113 316.605Z" id="Shape" fill="#FFFFFF" fill-rule="evenodd" stroke="none" />
  </g>
</svg>