<svg xmlns="http://www.w3.org/2000/svg" viewBox="0 0 750 500"><g id="freepik--background-complete--inject-3"><rect x="61.14" y="317.97" width="131.33" height="101.29" style="fill:#ebebeb"></rect><path d="M159.57,418.54c-.15,0-.27-22.57-.27-50.42s.12-50.43.27-50.43.26,22.58.26,50.43S159.71,418.54,159.57,418.54Z" style="fill:#e0e0e0"></path><rect x="171.27" y="396.2" width="10.07" height="11.38" style="fill:#fafafa"></rect><rect x="101.21" y="318.23" width="14.92" height="21.61" style="fill:#e0e0e0"></rect><rect x="101.21" y="397.34" width="14.92" height="21.61" style="fill:#e0e0e0"></rect><rect x="81.68" y="216.91" width="131.33" height="101.29" style="fill:#ebebeb"></rect><path d="M180.1,317.48c-.14,0-.26-22.57-.26-50.42s.12-50.42.26-50.42.26,22.57.26,50.42S180.25,317.48,180.1,317.48Z" style="fill:#e0e0e0"></path><rect x="191.8" y="295.14" width="10.07" height="11.38" style="fill:#fafafa"></rect><rect x="121.74" y="217.17" width="14.92" height="21.61" style="fill:#e0e0e0"></rect><rect x="121.74" y="296.29" width="14.92" height="21.61" style="fill:#e0e0e0"></rect><rect x="98.38" y="135.73" width="105.6" height="81.44" style="fill:#f5f5f5"></rect><path d="M177.52,216.6c-.11,0-.21-18.16-.21-40.55s.1-40.54.21-40.54.21,18.15.21,40.54S177.64,216.6,177.52,216.6Z" style="fill:#e0e0e0"></path><rect x="186.93" y="198.63" width="8.1" height="9.15" style="fill:#fafafa"></rect><rect x="130.6" y="135.94" width="11.99" height="17.38" style="fill:#e0e0e0"></rect><rect x="130.6" y="199.55" width="11.99" height="17.38" style="fill:#e0e0e0"></rect><rect x="576.17" y="192.27" width="99.19" height="76.5" style="fill:#f5f5f5"></rect><path d="M650.51,268.24c-.11,0-.2-17.06-.2-38.09s.09-38.08.2-38.08.19,17.05.19,38.08S650.62,268.24,650.51,268.24Z" style="fill:#e0e0e0"></path><rect x="659.34" y="251.36" width="7.6" height="8.6" style="fill:#fafafa"></rect><rect x="606.43" y="192.47" width="11.27" height="16.32" style="fill:#e0e0e0"></rect><rect x="606.43" y="252.23" width="11.27" height="16.32" style="fill:#e0e0e0"></rect><rect x="594.28" y="356.73" width="114.32" height="88.18" style="fill:#ebebeb"></rect><path d="M680,444.28c-.12,0-.22-19.65-.22-43.89s.1-43.9.22-43.9.23,19.65.23,43.9S680.09,444.28,680,444.28Z" style="fill:#e0e0e0"></path><rect x="690.15" y="424.83" width="8.76" height="9.91" style="fill:#fafafa"></rect><rect x="629.16" y="356.95" width="12.99" height="18.81" style="fill:#e0e0e0"></rect><rect x="629.16" y="425.83" width="12.99" height="18.81" style="fill:#e0e0e0"></rect><rect x="578.49" y="268.78" width="114.32" height="88.18" style="fill:#ebebeb"></rect><path d="M664.17,356.33c-.13,0-.23-19.65-.23-43.89s.1-43.9.23-43.9.23,19.65.23,43.9S664.3,356.33,664.17,356.33Z" style="fill:#e0e0e0"></path><rect x="674.36" y="336.88" width="8.76" height="9.91" style="fill:#fafafa"></rect><rect x="613.37" y="269" width="12.99" height="18.81" style="fill:#e0e0e0"></rect><rect x="613.37" y="337.88" width="12.99" height="18.81" style="fill:#e0e0e0"></rect><rect x="382.78" y="193.5" width="99.19" height="76.5" style="fill:#f5f5f5"></rect><path d="M457.12,269.47c-.11,0-.19-17.06-.19-38.09s.08-38.08.19-38.08.2,17,.2,38.08S457.23,269.47,457.12,269.47Z" style="fill:#e0e0e0"></path><rect x="465.96" y="252.59" width="7.6" height="8.6" style="fill:#fafafa"></rect><rect x="413.04" y="193.7" width="11.27" height="16.32" style="fill:#e0e0e0"></rect><rect x="413.04" y="253.46" width="11.27" height="16.32" style="fill:#e0e0e0"></rect><rect x="391.58" y="117.2" width="99.19" height="76.5" style="fill:#ebebeb"></rect><path d="M465.92,193.16c-.11,0-.2-17-.2-38.08s.09-38.09.2-38.09.2,17,.2,38.09S466,193.16,465.92,193.16Z" style="fill:#e0e0e0"></path><rect x="474.76" y="176.29" width="7.6" height="8.6" style="fill:#fafafa"></rect><rect x="421.84" y="117.39" width="11.27" height="16.32" style="fill:#e0e0e0"></rect><rect x="421.84" y="177.15" width="11.27" height="16.32" style="fill:#e0e0e0"></rect><rect x="416.08" y="64.1" width="70.97" height="54.74" style="fill:#ebebeb"></rect><path d="M469.28,118.46c-.08,0-.14-12.2-.14-27.25S469.2,64,469.28,64s.14,12.2.14,27.25S469.35,118.46,469.28,118.46Z" style="fill:#e0e0e0"></path><rect x="475.6" y="106.39" width="5.44" height="6.15" style="fill:#fafafa"></rect><rect x="437.74" y="64.25" width="8.06" height="11.68" style="fill:#e0e0e0"></rect><rect x="437.74" y="107" width="8.06" height="11.68" style="fill:#e0e0e0"></rect><rect x="400.9" y="357.96" width="114.32" height="88.18" style="fill:#ebebeb"></rect><path d="M486.58,445.51c-.13,0-.23-19.65-.23-43.89s.1-43.9.23-43.9.22,19.65.22,43.9S486.7,445.51,486.58,445.51Z" style="fill:#e0e0e0"></path><rect x="496.76" y="426.06" width="8.76" height="9.91" style="fill:#fafafa"></rect><rect x="435.77" y="358.18" width="12.99" height="18.81" style="fill:#e0e0e0"></rect><rect x="435.77" y="427.06" width="12.99" height="18.81" style="fill:#e0e0e0"></rect><rect x="385.1" y="270.01" width="114.32" height="88.18" style="fill:#ebebeb"></rect><path d="M470.79,357.56c-.13,0-.23-19.65-.23-43.89s.1-43.9.23-43.9.22,19.65.22,43.9S470.91,357.56,470.79,357.56Z" style="fill:#e0e0e0"></path><rect x="480.97" y="338.11" width="8.76" height="9.91" style="fill:#fafafa"></rect><rect x="419.98" y="270.23" width="12.99" height="18.81" style="fill:#e0e0e0"></rect><rect x="419.98" y="339.11" width="12.99" height="18.81" style="fill:#e0e0e0"></rect><path d="M250.8,428.67v-9.41H58.3a2.57,2.57,0,0,0-2.57,2.57v4.27a2.57,2.57,0,0,0,2.57,2.57h5.36V433a2.53,2.53,0,0,1-2.53,2.53H58.26A2.53,2.53,0,0,0,55.73,438v4.35a2.53,2.53,0,0,0,2.53,2.53H250.8v-9.41H205.93v-6.82Zm-141,0h11.54v6.82H109.8Zm-7.69,6.82H90.58v-6.82h11.53ZM129,428.67h11.53v6.82H129Zm19.22,0h11.54v6.82H148.25Zm19.23,0H179v6.82H167.48Zm-96.13,0H82.89v6.82H71.35Zm126.89,6.82H186.7v-6.82h11.54Z" style="fill:#e0e0e0"></path></g><g id="freepik--Forklift--inject-3"><rect x="140.13" y="232.5" width="104.18" height="80.36" style="fill:#01B764"></rect><rect x="140.13" y="232.5" width="104.18" height="80.36" style="opacity:0.30000000000000004"></rect><path d="M218.21,312.29c-.09,0-.17-17.91-.17-40s.08-40,.17-40,.17,17.91.17,40S218.3,312.29,218.21,312.29Z" style="fill:#263238"></path><rect x="227.49" y="294.57" width="7.99" height="9.03" style="fill:#f5f5f5"></rect><rect x="171.91" y="232.71" width="11.83" height="17.15" style="fill:#263238"></rect><rect x="171.91" y="295.47" width="11.83" height="17.15" style="fill:#263238"></rect><path d="M243.41,232.5l-.27,0h-.78l-3,0-11.07.05-36.51,0-36.52,0-11.06-.06-3,0h-.78l-.27,0,.27,0h.78l3,0,11.06-.05,36.52,0,36.51,0,11.07.05,3,0h.78Z" style="fill:#263238"></path><rect x="226.86" y="232.4" width="104.18" height="80.36" style="fill:#01B764"></rect><path d="M304.94,312.19c-.09,0-.17-17.91-.17-40s.08-40,.17-40,.17,17.9.17,40S305,312.19,304.94,312.19Z" style="fill:#263238"></path><rect x="314.22" y="294.47" width="7.99" height="9.03" style="fill:#f5f5f5"></rect><rect x="258.64" y="232.61" width="11.83" height="17.15" style="fill:#fff;opacity:0.5"></rect><rect x="258.64" y="295.37" width="11.83" height="17.15" style="fill:#fff;opacity:0.5"></rect><path d="M330.13,232.4l-.26,0-.79,0-3,0-11.06.05-36.51,0-36.52,0-11.07-.05-3,0-.79,0-.26,0h.26l.79,0,3,0,11.07-.06,36.52-.05,36.51.05,11.06.06,3,0,.79,0Z" style="fill:#263238"></path><rect x="232.71" y="152.04" width="104.18" height="80.36" style="fill:#01B764"></rect><path d="M310.79,231.83c-.1,0-.17-17.91-.17-40s.07-40,.17-40,.17,17.9.17,40S310.88,231.83,310.79,231.83Z" style="fill:#263238"></path><rect x="320.07" y="214.11" width="7.99" height="9.03" style="fill:#f5f5f5"></rect><rect x="264.49" y="152.25" width="11.83" height="17.15" style="fill:#263238"></rect><rect x="264.49" y="215.01" width="11.83" height="17.15" style="fill:#263238"></rect><path d="M336,152a.76.76,0,0,1-.26,0l-.79,0-3,0-11.06,0-36.51.05-36.52-.05-11.07,0-3,0-.79,0a.76.76,0,0,1-.26,0H233l.79,0,3,0,11.07-.06,36.52,0,36.51,0,11.06.06,3,0,.79,0Z" style="fill:#263238"></path><path d="M325.75,402.33v-9.41H133.26a2.58,2.58,0,0,0-2.58,2.57v4.27a2.58,2.58,0,0,0,2.58,2.57h5.36v4.28a2.54,2.54,0,0,1-2.54,2.54h-2.86a2.54,2.54,0,0,0-2.54,2.53V416a2.54,2.54,0,0,0,2.54,2.53H325.75v-9.41H280.88v-6.82Zm-141,0h11.53v6.82H184.76Zm-7.69,6.82H165.53v-6.82h11.54ZM204,402.33h11.54v6.82H204Zm19.23,0h11.53v6.82H223.21Zm19.22,0H254v6.82H242.43Zm-96.12,0h11.53v6.82H146.31Zm126.88,6.82H261.65v-6.82h11.54Z" style="fill:#455a64"></path><path d="M480.91,240.21a3.39,3.39,0,0,0-.1-4.84l-32.47-30.69a3.5,3.5,0,0,0-4.79,0h0a3.5,3.5,0,0,0-.13,5l12.95,13.62-6.74,6.49L446.12,227l-24.49,28.05-13.09-12.59-15.78,46.41,3.13,63h36.3L429.65,277,454,242.32l.19-8.25,7-7.17,15.09,13.48a3.4,3.4,0,0,0,4.7-.17Z" style="fill:#263238"></path><path d="M383,363.54c-.14,0-.26-57.48-.26-128.37s.12-128.39.26-128.39.26,57.47.26,128.39S383.11,363.54,383,363.54Z" style="fill:#263238"></path><path d="M464.25,347.35,486.33,286l-8.3-3.36V270.79l60.37-.93a5.87,5.87,0,0,0,5.72-5.21L553,185.83a7.22,7.22,0,0,1,7.17-6.41h0a7.21,7.21,0,0,1,7.21,7.51L564,268.15l31.52.17,1.07,14.81-93.22,3.65-24.31,59.69Z" style="fill:#455a64"></path><path d="M478.14,345.85l-78.48.62v5.23l32.51-.42,51.78-.4,125.54-17.72L595.26,279h-85a9.05,9.05,0,0,0-7.52,3.82Z" style="fill:#263238"></path><path d="M440.53,119.36l-57,181.93.4,50.61H402V301.61l46.74-181.76,126.64-.71,24.22,189.33h14.29l-29.47-188a10.74,10.74,0,0,0-10.55-8.75H450.81A10.73,10.73,0,0,0,440.53,119.36Z" style="fill:#455a64"></path><path d="M373.24,410.35v-48.6l10.64-9.85,100-1.29,18-14.64a20.53,20.53,0,0,1,11.79-4.56l19.26-1.09s8.64-5.95,17-11.85a62.69,62.69,0,0,1,36.22-11.54h55.43a7.59,7.59,0,0,1,7.59,7.59v95.83Z" style="fill:#01B764"></path><rect x="372.26" y="394.69" width="276.89" height="15.98" style="fill:#263238"></rect><path d="M386.59,410.17a34.24,34.24,0,1,0,34.73-33.73A34.24,34.24,0,0,0,386.59,410.17Z" style="fill:#263238"></path><path d="M386.6,410.09s0,.05,0,.08a34.24,34.24,0,0,0,68.47,1s0-.06,0-.09Z" style="fill:#263238"></path><path d="M396.79,410.32a24,24,0,1,0,24.38-23.69A24,24,0,0,0,396.79,410.32Z" style="fill:#fafafa"></path><path d="M421.17,386.63a24,24,0,0,0-24.38,23.69l48.07.69A24,24,0,0,0,421.17,386.63Z" style="fill:#e0e0e0"></path><path d="M406.18,410.46A14.64,14.64,0,1,0,421,396,14.65,14.65,0,0,0,406.18,410.46Z" style="fill:#263238"></path><path d="M554.13,410.17a34.24,34.24,0,1,0,34.73-33.73A34.24,34.24,0,0,0,554.13,410.17Z" style="fill:#263238"></path><path d="M554.14,410.09s0,.05,0,.08a34.24,34.24,0,0,0,68.47,1s0-.06,0-.09Z" style="fill:#263238"></path><path d="M564.33,410.32a24,24,0,1,0,24.38-23.69A24,24,0,0,0,564.33,410.32Z" style="fill:#fafafa"></path><path d="M588.71,386.63a24,24,0,0,0-24.38,23.69l48.07.69A24,24,0,0,0,588.71,386.63Z" style="fill:#e0e0e0"></path><path d="M573.73,410.46A14.64,14.64,0,1,0,588.58,396,14.64,14.64,0,0,0,573.73,410.46Z" style="fill:#263238"></path><path d="M632.92,386.3a2,2,0,0,1-.17-.24l-.44-.72-.7-1.18a17.88,17.88,0,0,0-1-1.57,48.59,48.59,0,0,0-7.72-9c-.88-.89-1.95-1.66-3-2.55s-2.25-1.65-3.45-2.5-2.52-1.63-3.94-2.32c-.69-.36-1.39-.75-2.11-1.1l-2.25-1a49.28,49.28,0,0,0-9.92-3,48.73,48.73,0,0,0-11.09-.84,48.57,48.57,0,0,0-20.56,5.86l-2.14,1.2c-.69.42-1.34.88-2,1.3-1.35.82-2.51,1.82-3.7,2.69s-2.22,1.86-3.2,2.81-1.94,1.86-2.74,2.83a48.56,48.56,0,0,0-6.83,9.7,15.28,15.28,0,0,0-.84,1.66c-.23.48-.43.89-.59,1.24l-.37.76a1.57,1.57,0,0,1-.14.25,1,1,0,0,1,.09-.27l.32-.78.54-1.26a15.78,15.78,0,0,1,.81-1.69,46.53,46.53,0,0,1,6.74-9.85c.79-1,1.78-1.88,2.73-2.88s2.09-1.88,3.21-2.86,2.36-1.89,3.71-2.73c.66-.43,1.32-.89,2-1.32l2.15-1.23a50.07,50.07,0,0,1,9.67-4,49.28,49.28,0,0,1,11.09-1.92,48.84,48.84,0,0,1,21.23,3.95l2.26,1c.73.35,1.43.75,2.13,1.12,1.43.7,2.68,1.6,4,2.36s2.39,1.68,3.46,2.55,2.12,1.69,3,2.59a46.79,46.79,0,0,1,7.64,9.17,17.14,17.14,0,0,1,1,1.6l.65,1.21c.17.31.3.55.4.75S632.93,386.29,632.92,386.3Z" style="fill:#263238"></path><path d="M465.53,392.6a1.16,1.16,0,0,1-.14-.27c-.08-.21-.19-.48-.33-.82l-.54-1.33c-.24-.52-.51-1.12-.81-1.79a54.39,54.39,0,0,0-6.47-10.63,42.49,42.49,0,0,0-13.94-11.87,41,41,0,0,0-10.3-3.43,52.13,52.13,0,0,0-11.63-1.06,51.34,51.34,0,0,0-11.58,1.49,43,43,0,0,0-10.12,3.95,50.61,50.61,0,0,0-14.39,11.43,57.19,57.19,0,0,0-7,10.26c-.7,1.3-1.23,2.32-1.56,3-.16.33-.3.59-.4.79a1.11,1.11,0,0,1-.15.26.92.92,0,0,1,.1-.28l.36-.81c.3-.72.8-1.75,1.47-3.07A54.57,54.57,0,0,1,385,378a50.35,50.35,0,0,1,14.44-11.61,43.47,43.47,0,0,1,10.22-4,51.91,51.91,0,0,1,11.7-1.51A52.61,52.61,0,0,1,433.11,362a41.28,41.28,0,0,1,10.41,3.5,42.4,42.4,0,0,1,14,12.08,52.48,52.48,0,0,1,6.37,10.77l.76,1.81c.19.53.36,1,.49,1.35s.22.62.29.84A1.14,1.14,0,0,1,465.53,392.6Z" style="fill:#263238"></path><rect x="221.39" y="392.92" width="151.78" height="17.75" style="fill:#263238"></rect><path d="M369.06,400.45a4.42,4.42,0,1,1-4.42-4.42A4.42,4.42,0,0,1,369.06,400.45Z" style="fill:#455a64"></path><rect x="358.51" y="110.32" width="12.67" height="251.68" style="fill:#455a64"></rect><path d="M551.36,376.34c0,.14-21.36.26-47.7.26s-47.7-.12-47.7-.26,21.35-.26,47.7-.26S551.36,376.2,551.36,376.34Z" style="fill:#263238"></path><path d="M531.92,372.57c-.15,0-.26-9.29-.26-20.75s.11-20.74.26-20.74.26,9.28.26,20.74S532.06,372.57,531.92,372.57Z" style="fill:#263238"></path><rect x="357.15" y="104.55" width="25.86" height="11.54" style="fill:#263238"></rect><rect x="356.52" y="359.92" width="16.65" height="33.22" style="fill:#263238"></rect><rect x="230.33" y="312.79" width="104.18" height="80.36" style="fill:#01B764"></rect><rect x="230.33" y="312.79" width="104.18" height="80.36" style="opacity:0.30000000000000004"></rect><path d="M308.41,392.58c-.09,0-.17-17.91-.17-40s.08-40,.17-40,.17,17.91.17,40S308.5,392.58,308.41,392.58Z" style="fill:#263238"></path><rect x="317.69" y="374.86" width="7.99" height="9.03" style="fill:#f5f5f5"></rect><rect x="262.11" y="313" width="11.83" height="17.15" style="fill:#263238"></rect><rect x="262.11" y="375.76" width="11.83" height="17.15" style="fill:#263238"></rect><path d="M333.6,312.79l-.26,0h-.79l-3,0-11.07.05L282,313l-36.52,0-11.06-.05-3,0h-.79l-.26,0a1.33,1.33,0,0,1,.26,0h.79l3,0,11.06-.05,36.52-.05,36.51.05,11.07.05,3,0h.79A1.33,1.33,0,0,1,333.6,312.79Z" style="fill:#263238"></path><rect x="121.05" y="312.79" width="104.18" height="80.36" style="fill:#01B764"></rect><path d="M199.14,392.58c-.1,0-.17-17.91-.17-40s.07-40,.17-40,.16,17.91.16,40S199.23,392.58,199.14,392.58Z" style="fill:#263238"></path><rect x="208.42" y="374.86" width="7.99" height="9.03" style="fill:#f5f5f5"></rect><rect x="152.84" y="313" width="11.83" height="17.15" style="fill:#fff;opacity:0.5"></rect><rect x="152.84" y="375.76" width="11.83" height="17.15" style="fill:#fff;opacity:0.5"></rect><path d="M224.33,312.79l-.27,0h-.78l-3,0-11.06.05-36.51,0-36.52,0-11.07-.05-3,0h-.78l-.27,0a1.52,1.52,0,0,1,.27,0h.78l3,0,11.07-.05,36.52-.05,36.51.05,11.06.05,3,0h.78A1.39,1.39,0,0,1,224.33,312.79Z" style="fill:#263238"></path><path d="M653.52,334.63c5.37,1.3,9.88,6.75,9.79,12.28a12.67,12.67,0,0,1-9.79,11.82" style="fill:#01B764"></path><g style="opacity:0.6000000000000001"><path d="M653.52,334.63c5.37,1.3,9.88,6.75,9.79,12.28a12.67,12.67,0,0,1-9.79,11.82" style="fill:#fff"></path></g><rect x="649.15" y="331.53" width="4.59" height="30.41" style="fill:#01B764"></rect><rect x="649.15" y="331.53" width="4.59" height="30.41" style="opacity:0.30000000000000004"></rect></g><g id="freepik--Character--inject-3"><path d="M435.35,209.67a2.91,2.91,0,0,1-.75-3.73c.77-1.34,1.67-2.92,2.08-3.58a25.08,25.08,0,0,0,1.37-2.42,2.73,2.73,0,0,1,2.1-2,11.67,11.67,0,0,1,3.67.11l12.51,2.7,5.83,2.88-5.67,5-3.15-1c-.95.82-4.66,1.25-5.92,1.1-1.61-.2-4.83-1.25-6.66-.9l-1.77.25.84.7a8.41,8.41,0,0,1,4.45.91,1.27,1.27,0,0,1-.62,2.32l-4.11.27a23.55,23.55,0,0,1-3.2-1.82A11.6,11.6,0,0,0,435.35,209.67Z" style="fill:#ffbe9d"></path><path d="M439,208.12a1.8,1.8,0,0,1-.67.28,3.57,3.57,0,0,1-2,0,2.52,2.52,0,0,1-1.19-.83,2.11,2.11,0,0,1-.38-1.66,1.52,1.52,0,0,1,.52-.84,2.89,2.89,0,0,1,.86-.43,13.62,13.62,0,0,1,1.83-.47,28.89,28.89,0,0,1,3.57-.46c.55,0,1.07-.06,1.57-.06l.38,0h.3a6.18,6.18,0,0,0,.62-.12,26.37,26.37,0,0,1,2.59-.69,8.79,8.79,0,0,1-2.5,1,4.12,4.12,0,0,1-.65.16,1.67,1.67,0,0,1-.4,0h-.34c-.47,0-1,.06-1.53.11a35.08,35.08,0,0,0-3.51.49,14.6,14.6,0,0,0-1.76.44c-.58.17-1,.43-1.08.9a1.73,1.73,0,0,0,.26,1.3,2.3,2.3,0,0,0,1,.74,3.84,3.84,0,0,0,1.86.17C438.73,208.14,439,208.07,439,208.12Z" style="fill:#eb996e"></path><path d="M440.55,201.6c.14,0,.38.62.13,1.41s-.81,1.21-.9,1.1.21-.59.41-1.25S440.4,201.62,440.55,201.6Z" style="fill:#eb996e"></path><path d="M442.51,202.39c.14,0,.18.5-.17,1s-.82.54-.87.4.21-.38.46-.72S442.36,202.37,442.51,202.39Z" style="fill:#eb996e"></path><path d="M491.76,199.6c1.72-.72-9.88,11.21-9.88,11.21l-21.44-8-7.57,4.65,23.05,16.23a12.13,12.13,0,0,0,15.73-1.5l13.61-15.73Z" style="fill:#ffbe9d"></path><path d="M504.33,151.8c-3-.58-4.86-1.5-4.94-2.65-.16-2.38,7.39-4.82,16.87-5.47s17.28.77,17.45,3.14c.07,1.15-1.64,2.31-4.5,3.28" style="fill:#01B764"></path><g style="opacity:0.4"><path d="M506,151.6c-2.65-.5-4.38-1.32-4.38-2.34,0-2.85,6.55-4.28,14.95-4.85s15.33.68,15.47,2.79c.07,1-1.45,2-4,2.9"></path></g><path d="M501.67,147.87s1.77-10.25,1.95-10.76,2.75-5.11,9.54-6.84l5.68-.39s8.24,2.05,9.84,3.92,2.88,11.35,2.88,11.35l-16.16-2.38-10.65,3.37Z" style="fill:#01B764"></path><path d="M514.94,129l-2.44.16a4,4,0,0,0-.8,2.63c0,1.77.43,13.91.43,13.91l7.1-.8L518,129.94l2.45.38-.13-.85-.69-.71Z" style="fill:#01B764"></path><path d="M529.78,184.87l-17.4.38c-.22-1.83-.06-13.28-.06-13.28s-6.62-.58-7.15-7.13-.41-19.71-.41-19.71l.07-.58c7.37-3.77,16.14-4.66,23-.06l1,.68Z" style="fill:#ffbe9d"></path><path d="M512.32,172a15.89,15.89,0,0,0,8.37-3.11s-1.81,5-8.39,4.81Z" style="fill:#eb996e"></path><path d="M528.53,152c.11,0,4.41-1.63,4.57,2.86s-4.38,3.72-4.39,3.6S528.53,152,528.53,152Z" style="fill:#ffbe9d"></path><path d="M530,156.71s.08.06.21.11a.75.75,0,0,0,.59,0,1.93,1.93,0,0,0,.83-1.77,2.52,2.52,0,0,0-.26-1.11.91.91,0,0,0-.61-.58.4.4,0,0,0-.45.23c-.06.13,0,.22-.05.23s-.1-.07-.07-.26a.55.55,0,0,1,.17-.29.6.6,0,0,1,.43-.13,1.09,1.09,0,0,1,.84.67A2.74,2.74,0,0,1,532,155a2,2,0,0,1-1.08,2,.82.82,0,0,1-.72-.09C530,156.82,530,156.72,530,156.71Z" style="fill:#eb996e"></path><path d="M506.93,153.22a1,1,0,0,0,1,.89.91.91,0,0,0,.91-.91,1,1,0,0,0-1-.89A.91.91,0,0,0,506.93,153.22Z" style="fill:#263238"></path><path d="M506.63,152.3c.12.11.8-.46,1.81-.53s1.78.39,1.88.26-.09-.27-.42-.48a2.65,2.65,0,0,0-1.52-.36,2.49,2.49,0,0,0-1.43.57C506.66,152,506.57,152.25,506.63,152.3Z" style="fill:#263238"></path><path d="M516.86,152.85a.94.94,0,0,0,1,.89.9.9,0,0,0,.9-.91.94.94,0,0,0-1-.89A.9.9,0,0,0,516.86,152.85Z" style="fill:#263238"></path><path d="M516.55,151.81c.12.12.79-.45,1.8-.52s1.78.39,1.88.26-.08-.27-.42-.49a2.54,2.54,0,0,0-1.51-.35,2.42,2.42,0,0,0-1.43.57C516.58,151.54,516.49,151.76,516.55,151.81Z" style="fill:#263238"></path><path d="M513.4,159.53a7.39,7.39,0,0,0-1.66-.18c-.26,0-.51,0-.56-.22a1.28,1.28,0,0,1,.12-.77l.63-2a35.6,35.6,0,0,0,1.36-5.24,33.37,33.37,0,0,0-1.78,5.12c-.21.7-.41,1.37-.6,2a1.53,1.53,0,0,0-.06,1,.64.64,0,0,0,.45.34,1.71,1.71,0,0,0,.44,0A6.25,6.25,0,0,0,513.4,159.53Z" style="fill:#263238"></path><path d="M516.41,160c-.17,0-.09,1.09-1,1.93s-2,.8-2,1,.27.19.77.17a2.75,2.75,0,0,0,1.71-.73,2.41,2.41,0,0,0,.75-1.62C516.62,160.28,516.48,160,516.41,160Z" style="fill:#263238"></path><path d="M516,147.88c.12.27,1.11.07,2.3.14s2.17.32,2.31.06-.12-.37-.52-.61a3.83,3.83,0,0,0-1.74-.48,3.9,3.9,0,0,0-1.78.33C516.17,147.53,516,147.76,516,147.88Z" style="fill:#263238"></path><path d="M506.8,149.36c.2.21.87-.07,1.71-.14s1.55.05,1.7-.2-.07-.34-.39-.54a2.48,2.48,0,0,0-2.74.27C506.8,149,506.72,149.25,506.8,149.36Z" style="fill:#263238"></path><path d="M529,147.75c-.05,1.83.13,3.66.08,5.49a6.15,6.15,0,0,1-.52,2,1.81,1.81,0,0,1-3.42.25,5.43,5.43,0,0,1-.56-2.32,7.6,7.6,0,0,0-.4-2.37,12.66,12.66,0,0,0-1.52-2.22,2.92,2.92,0,0,1-.59-2.53,13.38,13.38,0,0,1,6.93,1.69" style="fill:#263238"></path><path d="M504.76,148.56l-.11-3.67,10.5-3.92,13.65,3,.26,3.94A33,33,0,0,0,504.76,148.56Z" style="fill:#455a64"></path><path d="M505.27,144.07l-.44.48-3.69,2.69a61.06,61.06,0,0,1,14.93-3,71.87,71.87,0,0,1,16.62,1.56l-5.28-2.71h0a8.77,8.77,0,0,0-6.41-2.35l-9.64.46A8.79,8.79,0,0,0,505.27,144.07Z" style="fill:#01B764"></path><path d="M512,140.87a33.59,33.59,0,0,0,.14-5.13,34.18,34.18,0,0,0-.26-5.13,30.77,30.77,0,0,0-.14,5.13A32.66,32.66,0,0,0,512,140.87Z" style="fill:#263238"></path><path d="M520.44,130.32a6.81,6.81,0,0,0-1.84-.4.78.78,0,0,0-.72.77l.06,1.08c.07.77.13,1.59.2,2.44.14,1.74.3,3.31.43,4.44a8,8,0,0,0,.3,1.83,7.91,7.91,0,0,0,0-1.85c-.06-1.14-.17-2.71-.32-4.44-.08-.86-.15-1.68-.22-2.45,0-.36-.08-.71-.11-1.05a.49.49,0,0,1,.42-.49A11.17,11.17,0,0,0,520.44,130.32Z" style="fill:#263238"></path><path d="M500.89,147.21s.44-.22,1.25-.57c.4-.18.89-.38,1.45-.69a4.32,4.32,0,0,0,1.61-1.44c.47-.7.5-1.63,1-2.33s1.54-.81,2.56-.91c2.06-.23,4.33-.4,6.72-.5s4.68-.12,6.75-.1a4.19,4.19,0,0,1,2.69.7,7.27,7.27,0,0,1,.87,1l.41.49.21.23a1.1,1.1,0,0,0,.29.19c1.48.59,2.69,1,3.52,1.27a10.78,10.78,0,0,0,1.29.44,1.73,1.73,0,0,0-.31-.18c-.21-.1-.52-.24-.93-.41-.8-.35-2-.77-3.44-1.38a1,1,0,0,1-.21-.13l-.19-.23-.39-.49a8.33,8.33,0,0,0-.9-1,4.42,4.42,0,0,0-2.9-.82c-2.08,0-4.37,0-6.77.07s-4.69.28-6.76.53a9.81,9.81,0,0,0-1.52.24A2.11,2.11,0,0,0,506,142c-.58.82-.58,1.75-1,2.37a4.05,4.05,0,0,1-1.48,1.39c-.53.32-1,.55-1.41.75s-.69.37-.89.49A1.36,1.36,0,0,0,500.89,147.21Z" style="fill:#263238"></path><path d="M502.37,147.68a1.18,1.18,0,0,0,.27-.16c.17-.12.43-.28.77-.47a16.63,16.63,0,0,1,3.09-1.17,38.79,38.79,0,0,1,10.84-1.26c2.15,0,4.19,0,6,.08s3.51.37,4.89.6a18.43,18.43,0,0,1,1.84.41,3.13,3.13,0,0,1,1.27.54,1.25,1.25,0,0,1,.47,1,.49.49,0,0,0,.06-.32,1.33,1.33,0,0,0-.42-.83,3.16,3.16,0,0,0-1.31-.65,17.92,17.92,0,0,0-1.86-.47,46.44,46.44,0,0,0-4.91-.69c-1.87-.14-3.93-.1-6.07-.11a36,36,0,0,0-10.92,1.39,13.46,13.46,0,0,0-3.09,1.31,5,5,0,0,0-.74.53C502.43,147.59,502.36,147.67,502.37,147.68Z" style="fill:#263238"></path><path d="M513.55,129.4a6.54,6.54,0,0,0,1,0l2.42-.09c.94,0,1.81-.15,2.41-.09a1.12,1.12,0,0,1,.84.43s0-.1-.14-.23a1.2,1.2,0,0,0-.69-.31,15.65,15.65,0,0,0-2.43,0l-2.42.14A4.45,4.45,0,0,0,513.55,129.4Z" style="fill:#fafafa"></path><path d="M513.13,141.27a2.52,2.52,0,0,0,.51,0l1.38,0c1.17,0,2.78,0,4.56,0l2.51.06a11.77,11.77,0,0,1,2,.16,2,2,0,0,1,1.14.69,2.05,2.05,0,0,1,.24.43.94.94,0,0,0-.19-.47,2,2,0,0,0-1.16-.76,11,11,0,0,0-2-.2c-.77,0-1.62-.06-2.51-.07-1.79,0-3.4,0-4.57.05l-1.38.07A3,3,0,0,0,513.13,141.27Z" style="fill:#fafafa"></path><path d="M518.4,139.49a1.61,1.61,0,0,0,0-.36c0-.33-.09-.65-.14-1-.11-.83-.25-2-.38-3.25s-.2-2.42-.25-3.25q0-.51-.06-1a1.26,1.26,0,0,0,0-.36,1.48,1.48,0,0,0,0,.36c0,.23,0,.57,0,1,0,.84.08,2,.2,3.27s.29,2.42.43,3.24c.07.42.14.75.19,1A1.2,1.2,0,0,0,518.4,139.49Z" style="fill:#fafafa"></path><path d="M526.72,143.47a1.58,1.58,0,0,0,.32.14l.88.33,2.92,1a14.13,14.13,0,0,1,1.58.61,1.9,1.9,0,0,1,.93.93,1.45,1.45,0,0,1,.09.89c-.07.2-.15.3-.13.31a.78.78,0,0,0,.19-.29,1.37,1.37,0,0,0,0-.95,2,2,0,0,0-1-1,10.67,10.67,0,0,0-1.6-.63l-2.94-1-.89-.28A1.45,1.45,0,0,0,526.72,143.47Z" style="fill:#fafafa"></path><path d="M452.81,322.18l.91,16.24s-16.2,6.37-16.32,9.38l31.54-.62-.38-25.35Z" style="fill:#01B764"></path><g style="opacity:0.4"><path d="M452.81,322.18l.91,16.24s-16.2,6.37-16.32,9.38l31.54-.62-.38-25.35Z"></path></g><path d="M463.44,336.86a1.28,1.28,0,0,1,.92,1.45,1.23,1.23,0,0,1-1.43.92,1.35,1.35,0,0,1-1-1.54,1.29,1.29,0,0,1,1.59-.8" style="fill:#e0e0e0"></path><path d="M468.94,347.18l-.14-2.55-30.19,1.55s-1.39.64-1.21,1.62Z" style="fill:#e0e0e0"></path><path d="M453.21,338.27c0,.15.77.2,1.54.68s1.19,1.12,1.33,1.06-.11-.95-1.05-1.51S453.17,338.13,453.21,338.27Z" style="fill:#263238"></path><path d="M449.92,339.7c0,.15.64.4,1.18,1s.7,1.33.85,1.32.24-.89-.44-1.67S449.92,339.55,449.92,339.7Z" style="fill:#263238"></path><path d="M448.12,343.7c.14,0,.34-.75-.07-1.58s-1.14-1.16-1.2-1,.39.57.72,1.26S448,343.68,448.12,343.7Z" style="fill:#263238"></path><path d="M453.41,334.54c.07.14.77-.08,1.64,0s1.56.3,1.63.17-.58-.67-1.61-.71S453.33,334.42,453.41,334.54Z" style="fill:#263238"></path><g style="opacity:0.30000000000000004"><polygon points="453 325.4 453.15 328.29 468.65 327.84 468.62 325.23 453 325.4"></polygon></g><path d="M453.29,331.27a3.1,3.1,0,0,0,1.58,0,7.81,7.81,0,0,0,1.64-.54,9.1,9.1,0,0,0,.9-.5,2.45,2.45,0,0,0,.47-.38.69.69,0,0,0,.05-.82.84.84,0,0,0-.68-.34,1.74,1.74,0,0,0-.59.09,5,5,0,0,0-1,.36,5.66,5.66,0,0,0-1.44,1c-.71.69-.95,1.27-.9,1.3s.42-.44,1.15-1a6.31,6.31,0,0,1,1.4-.82,5.94,5.94,0,0,1,.9-.3c.33-.1.61-.1.7,0s0,.08,0,.18a1.75,1.75,0,0,1-.34.28,8.16,8.16,0,0,1-.83.49,8.79,8.79,0,0,1-1.51.62A9.38,9.38,0,0,0,453.29,331.27Z" style="fill:#263238"></path><path d="M453.49,331.48c.06,0,.35-.53.39-1.53a5.39,5.39,0,0,0-.25-1.73,5.21,5.21,0,0,0-.42-1,1.29,1.29,0,0,0-1-.77.74.74,0,0,0-.65.45,2.37,2.37,0,0,0-.15.58,3.74,3.74,0,0,0,0,1.06,3.67,3.67,0,0,0,.71,1.62c.63.81,1.28,1,1.29.93s-.49-.37-1-1.14a3.65,3.65,0,0,1-.53-1.48,3.09,3.09,0,0,1,0-.91c0-.34.16-.61.29-.58s.43.24.56.51a4.42,4.42,0,0,1,.41.85,5.57,5.57,0,0,1,.34,1.57C453.56,330.88,453.41,331.46,453.49,331.48Z" style="fill:#263238"></path><path d="M538,253.21s-3.45,17.68-9.17,17.93c-7,.3-57.85,1-57.85,1L474,328.75l-22.18-.53L443,272.43a21.38,21.38,0,0,1,2.36-14.64l.18-.31a21.29,21.29,0,0,1,18.15-10.23l42.23-.64Z" style="fill:#263238"></path><path d="M461.44,322.18l.9,16.24s-16.2,6.37-16.32,9.38l31.54-.62-.38-25.35Z" style="fill:#01B764"></path><path d="M472.06,336.86a1.28,1.28,0,0,1,.92,1.45,1.22,1.22,0,0,1-1.43.92,1.35,1.35,0,0,1-1-1.54,1.29,1.29,0,0,1,1.59-.8" style="fill:#e0e0e0"></path><path d="M477.56,347.18l-.14-2.55-30.19,1.55s-1.39.64-1.21,1.62Z" style="fill:#e0e0e0"></path><path d="M461.83,338.27c0,.15.78.2,1.54.68s1.19,1.12,1.33,1.06-.11-.95-1.05-1.51S461.79,338.13,461.83,338.27Z" style="fill:#263238"></path><path d="M458.55,339.7c0,.15.64.4,1.17,1s.7,1.33.85,1.32.24-.89-.44-1.67S458.55,339.55,458.55,339.7Z" style="fill:#263238"></path><path d="M456.74,343.7c.15,0,.34-.75-.07-1.58s-1.14-1.16-1.2-1,.39.57.72,1.26S456.59,343.68,456.74,343.7Z" style="fill:#263238"></path><path d="M462,334.54c.07.14.77-.08,1.64,0s1.56.3,1.63.17-.58-.67-1.61-.71S462,334.42,462,334.54Z" style="fill:#263238"></path><g style="opacity:0.30000000000000004"><polygon points="461.62 325.4 461.78 328.29 477.27 327.84 477.24 325.23 461.62 325.4"></polygon></g><path d="M461.91,331.27a3.1,3.1,0,0,0,1.58,0,7.81,7.81,0,0,0,1.64-.54,8.09,8.09,0,0,0,.9-.5,2.45,2.45,0,0,0,.47-.38.69.69,0,0,0,.05-.82.84.84,0,0,0-.68-.34,1.74,1.74,0,0,0-.59.09,5,5,0,0,0-1,.36,5.42,5.42,0,0,0-1.43,1c-.72.69-1,1.27-.91,1.3s.42-.44,1.15-1a6.31,6.31,0,0,1,1.4-.82,5.94,5.94,0,0,1,.9-.3c.33-.1.61-.1.7,0s0,.08,0,.18a1.75,1.75,0,0,1-.34.28,8.16,8.16,0,0,1-.83.49,8.79,8.79,0,0,1-1.51.62A9.38,9.38,0,0,0,461.91,331.27Z" style="fill:#263238"></path><path d="M462.11,331.48c.06,0,.35-.53.39-1.53a5.13,5.13,0,0,0-.25-1.73,5.21,5.21,0,0,0-.42-1,1.29,1.29,0,0,0-1-.77.74.74,0,0,0-.65.45,2.37,2.37,0,0,0-.15.58,3.74,3.74,0,0,0,0,1.06,3.67,3.67,0,0,0,.71,1.62c.63.81,1.28,1,1.29.93s-.49-.37-1-1.14a3.65,3.65,0,0,1-.53-1.48,3.09,3.09,0,0,1,0-.91c.05-.34.17-.61.29-.58s.43.24.56.51a4.42,4.42,0,0,1,.41.85,5.57,5.57,0,0,1,.34,1.57C462.18,330.88,462,331.46,462.11,331.48Z" style="fill:#263238"></path><path d="M543.56,253.21s-3.44,17.68-9.17,17.93c-7,.3-57.85,1-57.85,1l3.09,56.61-22.18-.53-8.87-55.79a21.38,21.38,0,0,1,2.36-14.64l.18-.31a21.29,21.29,0,0,1,18.16-10.23l42.22-.64Z" style="fill:#263238"></path><path d="M500.3,182.23,507,226.71l-4.53,20,41.14,12.11c3.72-5.32,3.86-22.21,3.73-34.16-.23-21.06.7-22.08-.21-29.47s-2.46-12.13-6.36-14.46L529.55,175s-6.32,4-10.17,3.81c0,0-4.57.19-7.1-2.24C512.28,176.54,503,179.34,500.3,182.23Z" style="fill:#01B764"></path><polygon points="500.3 182.23 486.59 201.13 505.26 212.09 503.83 205.22 500.3 182.23" style="fill:#01B764"></polygon><path d="M467.63,247.52a.58.58,0,0,1-.24,0l-.69.05a10.12,10.12,0,0,0-1.13.14,12.09,12.09,0,0,0-1.51.28,19.83,19.83,0,0,0-8.56,4.54,22.65,22.65,0,0,0-4.27,5.19,17.63,17.63,0,0,0-2.41,7.26,35.45,35.45,0,0,0,.32,8.55c.41,3,1,6,1.31,9.19.71,6.3,1.66,12.28,2.55,17.71s1.75,10.3,2.44,14.42,1.23,7.43,1.56,9.74c.15,1.12.27,2,.36,2.66,0,.28.06.5.08.69a1.08,1.08,0,0,1,0,.24.79.79,0,0,1-.06-.23c0-.19-.08-.41-.14-.69l-.45-2.64c-.42-2.34-1-5.64-1.72-9.71s-1.59-9-2.55-14.4-1.89-11.41-2.6-17.74c-.32-3.15-.89-6.19-1.29-9.17a34.84,34.84,0,0,1-.29-8.67,17.85,17.85,0,0,1,2.51-7.43,22.51,22.51,0,0,1,4.4-5.25,19.6,19.6,0,0,1,8.76-4.46A13.42,13.42,0,0,1,467.63,247.52Z" style="fill:#455a64"></path><path d="M483.39,233.79s15.87,5.12,28.21,9.59a13.5,13.5,0,0,0,12.64-1.84h0a13.47,13.47,0,0,0,4.85-6.78l8.45-26.62-14.11-4.94L514,227.13l-35.1-4.61" style="fill:#ffbe9d"></path><path d="M462.4,228.3l-.13-1.26a4.32,4.32,0,0,1,1.1-2.5h0a4.13,4.13,0,0,1,1.2-.92l4.15-2.17a3.3,3.3,0,0,1,2-.32l8.51,1.45,9.77,1.28L487,235l-4.52-1.5s-3.27,1.81-5.29,1.38c0,0-1.87,1.25-2.64.33,0,0-1.67,1.44-2.3,1.35s-1.87-.82-1.82-1.25l.05-.58a2,2,0,0,1-2.07-.09,2.92,2.92,0,0,1-.95-1.3,3.85,3.85,0,0,1-2.11-.91,4.8,4.8,0,0,1-.77-1.92S462.71,229.6,462.4,228.3Z" style="fill:#ffbe9d"></path><path d="M468.68,224.27c.06,0,.16.46-.05,1.16a6,6,0,0,1-1.5,2.34c-.75.77-1.45,1.4-1.88,1.92s-.66.88-.73.85,0-.47.44-1.07a14.31,14.31,0,0,1,1.79-2.06,8.05,8.05,0,0,0,1.54-2.11C468.56,224.7,468.59,224.27,468.68,224.27Z" style="fill:#eb996e"></path><path d="M470.3,228.72a8.71,8.71,0,0,1-2.95,4.54,10.86,10.86,0,0,1,1.4-2.32C469.56,229.7,470.16,228.65,470.3,228.72Z" style="fill:#eb996e"></path><path d="M472.47,231.66c.12.08-.23.8-.79,1.62s-1.1,1.42-1.22,1.33.24-.81.79-1.62S472.35,231.58,472.47,231.66Z" style="fill:#eb996e"></path><path d="M472.07,230.49c0,.06-.22.07-.48-.09a1.45,1.45,0,0,1-.63-1,1.37,1.37,0,0,1,.3-1.12c.19-.23.38-.29.43-.24s-.33.61-.22,1.28S472.13,230.36,472.07,230.49Z" style="fill:#eb996e"></path><path d="M474.44,233.48c0,.06-.18.07-.4,0a1.21,1.21,0,0,1-.56-.77.91.91,0,0,1,.27-1c.26-.18.46-.06.44,0a.78.78,0,0,0-.2.83C474.1,233.05,474.5,233.35,474.44,233.48Z" style="fill:#eb996e"></path><path d="M470.69,227.31c0,.06-.22.11-.52,0a1.29,1.29,0,0,1-.2-2.2c.27-.19.49-.17.5-.11s-.56.51-.5,1.22S470.73,227.19,470.69,227.31Z" style="fill:#eb996e"></path><path d="M537.61,184.34c-3.22-1.4-7.19,0-9.52,2.44s-3.4,5.63-4.4,8.73-3.38,9.07-4.35,12.06l18.29,7.83q2.34-6.33,4.36-12.77c1.14-3.6,2.2-7.48.88-11.06" style="fill:#01B764"></path><path d="M542.87,191.57a1.84,1.84,0,0,1,.19.44,7.17,7.17,0,0,1,.35,1.33,13.4,13.4,0,0,1-.13,5.12,56.06,56.06,0,0,1-2.21,7.54c-1,2.86-2,6.05-3.19,9.48l-.09.25-.26-.11-12.88-5.5-5.42-2.32-.22-.1.07-.2c1.48-4.36,3.13-8.35,4.37-12a38.94,38.94,0,0,1,2-5.17,13.8,13.8,0,0,1,2.86-4,9.69,9.69,0,0,1,6.7-2.64,6.94,6.94,0,0,1,2,.36,4.2,4.2,0,0,1,.63.28,9.13,9.13,0,0,0-2.61-.46,9.58,9.58,0,0,0-6.45,2.69,13.49,13.49,0,0,0-2.72,3.89,39.39,39.39,0,0,0-1.92,5.14c-1.21,3.71-2.86,7.72-4.31,12.05l-.15-.3,5.43,2.32,12.86,5.52-.35.14c1.18-3.43,2.28-6.6,3.27-9.45A60.1,60.1,0,0,0,543,198.4a14.3,14.3,0,0,0,.28-5C543.07,192.19,542.83,191.58,542.87,191.57Z" style="fill:#263238"></path><path d="M519.43,236.26c-.06,0-.2-1-.82-2.83a14.59,14.59,0,0,0-1.51-3.07,9.07,9.07,0,0,0-3.18-3.05l.05,0-19.81-2.58-12-1.61-5.21-.72-4.53-.73-2-.31a2.4,2.4,0,0,0-1.63.29l-2.57,1.24-1.63.77a2.4,2.4,0,0,1-.59.23,4,4,0,0,1,.54-.33l1.59-.85,2.53-1.32a2.74,2.74,0,0,1,1.81-.36l2,.28,4.53.66,5.22.68,12,1.57L514,226.93h.06a9.2,9.2,0,0,1,3.29,3.24,13.86,13.86,0,0,1,1.45,3.17,16.53,16.53,0,0,1,.52,2.13A3.64,3.64,0,0,1,519.43,236.26Z" style="fill:#eb996e"></path><path d="M507,226a7.35,7.35,0,0,1-.27-1.44c-.17-1-.38-2.34-.63-3.93-.57-3.41-1.32-7.95-2.15-13s-1.59-9.56-2.15-13c-.25-1.59-.45-2.92-.61-3.94a7.08,7.08,0,0,1-.16-1.46,7.81,7.81,0,0,1,.36,1.42l.77,3.92c.63,3.31,1.46,7.88,2.31,13s1.55,9.67,2,13c.23,1.67.38,3,.47,4A7.3,7.3,0,0,1,507,226Z" style="fill:#263238"></path></g><g id="freepik--Floor--inject-3"><path d="M696.5,444.9c0,.15-144.74.26-323.24.26S50,445.05,50,444.9s144.71-.26,323.28-.26S696.5,444.76,696.5,444.9Z" style="fill:#263238"></path></g><g id="freepik--Plant--inject-3"><path d="M69.38,411.56c-1.61,2.17-4.6,1.35-5.95,0s-1.9-3.36-2.39-5.24c-1.11-4.29-2.22-8.79-1.19-13.1a7.19,7.19,0,0,1,1.76-3.51,3.79,3.79,0,0,1,3.62-1.1c1.51.44,2.41,1.95,3.06,3.38A31.3,31.3,0,0,1,71,405.41a10.92,10.92,0,0,1-1.63,6.15" style="fill:#01B764"></path><g style="opacity:0.2"><path d="M69.38,411.56c-1.61,2.17-4.6,1.35-5.95,0s-1.9-3.36-2.39-5.24c-1.11-4.29-2.22-8.79-1.19-13.1a7.19,7.19,0,0,1,1.76-3.51,3.79,3.79,0,0,1,3.62-1.1c1.51.44,2.41,1.95,3.06,3.38A31.3,31.3,0,0,1,71,405.41a10.92,10.92,0,0,1-1.63,6.15"></path></g><path d="M63.28,422.59A13.42,13.42,0,0,0,55,421.36a7,7,0,0,0-4.16,1.72c-1.06,1.11-1.3,3.1-.15,4.11a4,4,0,0,0,2.57.72c2.2,0,4.65-.29,6.37,1.08,1,.79,1.62,2.06,2.81,2.46a2.82,2.82,0,0,0,3.15-1.3,4.85,4.85,0,0,0,.45-3.57A5.48,5.48,0,0,0,63.28,422.59Z" style="fill:#01B764"></path><path d="M73.54,414.84a8,8,0,0,1-1.05-7.43A14.22,14.22,0,0,1,77,401.17a23.74,23.74,0,0,1,8-4.42,8.33,8.33,0,0,1,3.55-.5,3.69,3.69,0,0,1,2.91,1.87c.79,1.59-.06,3.48-1,5a59.66,59.66,0,0,1-5.37,7.71c-1.6,1.95-3.42,3.87-5.8,4.71s-4.82.66-6-1" style="fill:#01B764"></path><path d="M68.59,444.9a4.41,4.41,0,0,1-.11-1c-.06-.74-.12-1.66-.2-2.75a38.06,38.06,0,0,0-.51-4,30.93,30.93,0,0,0-1.33-4.78A17.29,17.29,0,0,0,64.13,428a9.07,9.07,0,0,0-3-2.62,8.52,8.52,0,0,0-2.56-.88,4.26,4.26,0,0,1-1-.17,4.88,4.88,0,0,1,1,0,7.75,7.75,0,0,1,2.67.77,9.14,9.14,0,0,1,3.17,2.66,17,17,0,0,1,2.39,4.45A28.35,28.35,0,0,1,68.15,437a34.67,34.67,0,0,1,.43,4.08c0,1.17.06,2.11.06,2.76A5.3,5.3,0,0,1,68.59,444.9Z" style="fill:#263238"></path><path d="M68.46,442.78a1.7,1.7,0,0,1,0-.47c0-.35,0-.79,0-1.33,0-1.15.08-2.83.07-4.89,0-4.14-.19-9.85-.71-16.14s-1.29-12-2-16c-.17-1-.34-1.94-.51-2.74s-.29-1.5-.42-2.07-.21-1-.28-1.3a2.27,2.27,0,0,1-.07-.46s.07.15.15.44.21.76.35,1.29.32,1.25.5,2.05.38,1.72.57,2.74a150.68,150.68,0,0,1,2.14,16c.52,6.3.68,12,.6,16.18,0,2.07-.12,3.75-.21,4.9,0,.54-.08,1-.11,1.33A3.57,3.57,0,0,1,68.46,442.78Z" style="fill:#263238"></path><path d="M68.73,431.75a7.84,7.84,0,0,1,0-1.4c.08-.89.23-2.18.53-3.75a51.65,51.65,0,0,1,3.84-11.9,34.81,34.81,0,0,1,7-10.33,17.54,17.54,0,0,1,1.63-1.43c.25-.2.47-.4.69-.56l.63-.41a9.08,9.08,0,0,1,1.19-.71,41.64,41.64,0,0,0-3.93,3.32,36.65,36.65,0,0,0-6.86,10.29A53,53,0,0,0,71,421.25a54,54,0,0,0-1.45,5.4c-.33,1.56-.53,2.84-.66,3.72A10.3,10.3,0,0,1,68.73,431.75Z" style="fill:#263238"></path></g></svg>