<?xml version="1.0"?>
<svg xmlns="http://www.w3.org/2000/svg" width="512" height="512" viewBox="0 0 512 512"><g><path d="M280,176a8,8,0,0,0-8,8v32a8,8,0,0,0,16,0V184A8,8,0,0,0,280,176Z"/><path d="M256,176a8,8,0,0,0-8,8v32a8,8,0,0,0,16,0V184A8,8,0,0,0,256,176Z"/><path d="M304,176a8,8,0,0,0-8,8v32a8,8,0,0,0,16,0V184A8,8,0,0,0,304,176Z"/><path d="M392,176a8,8,0,0,0-8,8v32a8,8,0,0,0,16,0V184A8,8,0,0,0,392,176Z"/><path d="M368,176a8,8,0,0,0-8,8v32a8,8,0,0,0,16,0V184A8,8,0,0,0,368,176Z"/><path d="M416,224a8,8,0,0,0,8-8V184a8,8,0,0,0-16,0v32A8,8,0,0,0,416,224Z"/><path d="M344,144a8,8,0,0,0,8-8V104a8,8,0,0,0-16,0v32A8,8,0,0,0,344,144Z"/><path d="M320,96a8,8,0,0,0-8,8v32a8,8,0,0,0,16,0V104A8,8,0,0,0,320,96Z"/><path d="M368,144a8,8,0,0,0,8-8V104a8,8,0,0,0-16,0v32A8,8,0,0,0,368,144Z"/><path d="M496,360H444.94l58.22-116.42A8.008,8.008,0,0,0,496,232H456V160a8,8,0,0,0-8-8H408V80a8,8,0,0,0-8-8H288a8,8,0,0,0-8,8v72H224a8,8,0,0,0-8,8v72H184V160a8,8,0,0,0-8-8H144V128a8,8,0,0,0-8-8H112V80a8,8,0,0,0-16,0V91.06l-4.42-2.22a8.005,8.005,0,0,0-7.16,14.32L96,108.94V120H88a8,8,0,0,0-8,8v24H64a8,8,0,0,0-8,8v72H16a8,8,0,0,0-7.76,9.94L37.75,360H16a8,8,0,0,0,0,16H496a8,8,0,0,0,0-16ZM440,168v64H344V168ZM296,88h96v64H296Zm-64,80h96v64H232ZM96,136h32v16H96ZM72,168h96v8H112a8,8,0,0,0-8,8v32a8,8,0,0,0,8,8h56v8H72Zm96,24v16H120V192ZM427.06,360H54.25l-28-112H483.06Z"/><path d="M120,264H56a8,8,0,0,0,0,16h64a8,8,0,0,0,0-16Z"/><path d="M152,264h-8a8,8,0,0,0,0,16h8a8,8,0,0,0,0-16Z"/><path d="M496,400c-11.119,0-16.166-3.027-22.555-6.86-7.14-4.285-15.234-9.14-30.784-9.14s-23.644,4.855-30.785,9.14c-6.389,3.833-11.436,6.86-22.554,6.86s-16.162-3.027-22.55-6.86c-7.14-4.285-15.233-9.14-30.782-9.14s-23.641,4.855-30.782,9.14c-6.388,3.833-11.433,6.86-22.551,6.86s-16.161-3.027-22.549-6.859c-7.14-4.286-15.233-9.141-30.782-9.141s-23.641,4.855-30.781,9.141C192.157,396.973,187.112,400,176,400s-16.162-3.027-22.55-6.859c-7.14-4.286-15.233-9.141-30.783-9.141s-23.641,4.855-30.781,9.14C85.494,396.973,80.449,400,69.333,400s-16.164-3.027-22.551-6.86C39.642,388.855,31.549,384,16,384a8,8,0,0,0,0,16c11.117,0,16.162,3.027,22.55,6.859C45.69,411.145,53.783,416,69.333,416s23.641-4.855,30.781-9.141C106.5,403.027,111.547,400,122.663,400s16.163,3.027,22.551,6.86c7.14,4.285,15.233,9.14,30.782,9.14s23.642-4.855,30.781-9.141c6.388-3.832,11.433-6.859,22.549-6.859s16.162,3.027,22.55,6.86c7.141,4.285,15.233,9.14,30.781,9.14s23.643-4.855,30.783-9.141c6.388-3.832,11.433-6.859,22.55-6.859s16.162,3.027,22.55,6.86c7.141,4.285,15.233,9.14,30.782,9.14s23.644-4.855,30.784-9.14c6.389-3.833,11.436-6.86,22.555-6.86s16.165,3.027,22.553,6.86C472.355,411.145,480.449,416,496,416a8,8,0,0,0,0-16Z"/><path d="M496,432c-11.119,0-16.166-3.027-22.555-6.86-7.14-4.285-15.234-9.14-30.784-9.14s-23.644,4.855-30.785,9.14c-6.389,3.833-11.436,6.86-22.554,6.86s-16.162-3.027-22.55-6.86c-7.14-4.285-15.233-9.14-30.782-9.14s-23.641,4.855-30.782,9.14c-6.388,3.833-11.433,6.86-22.551,6.86s-16.161-3.027-22.549-6.859c-7.14-4.286-15.233-9.141-30.782-9.141s-23.641,4.855-30.781,9.141C192.157,428.973,187.112,432,176,432s-16.162-3.027-22.55-6.859c-7.14-4.286-15.233-9.141-30.783-9.141s-23.641,4.855-30.781,9.14C85.494,428.973,80.449,432,69.333,432s-16.164-3.027-22.551-6.86C39.642,420.855,31.549,416,16,416a8,8,0,0,0,0,16c11.117,0,16.162,3.027,22.55,6.859C45.69,443.145,53.783,448,69.333,448s23.641-4.855,30.781-9.141C106.5,435.027,111.547,432,122.663,432s16.163,3.027,22.551,6.86c7.14,4.285,15.233,9.14,30.782,9.14s23.642-4.855,30.781-9.141c6.388-3.832,11.433-6.859,22.549-6.859s16.162,3.027,22.55,6.86c7.141,4.285,15.233,9.14,30.781,9.14s23.643-4.855,30.783-9.141c6.388-3.832,11.433-6.859,22.55-6.859s16.162,3.027,22.55,6.86c7.141,4.285,15.233,9.14,30.782,9.14s23.644-4.855,30.784-9.14c6.389-3.833,11.436-6.86,22.555-6.86s16.165,3.027,22.553,6.86C472.355,443.145,480.449,448,496,448a8,8,0,0,0,0-16Z"/></g></svg>
