<?xml version="1.0" encoding="utf-8"?>
<svg width="512px" height="512px" viewbox="0 0 512 512" version="1.1" xmlns:xlink="http://www.w3.org/1999/xlink" xmlns="http://www.w3.org/2000/svg">
  <g id="whatsapp">
    <path d="M256 0C114.637 0 0 114.637 0 256C0 397.363 114.637 512 256 512C397.363 512 512 397.363 512 256C512 114.637 397.363 0 256 0L256 0ZM261.426 405.051C261.422 405.051 261.43 405.051 261.426 405.051L261.363 405.051C235.719 405.039 210.52 398.609 188.141 386.406L106.918 407.707L128.656 328.332C115.246 305.105 108.191 278.754 108.203 251.758C108.238 167.305 176.973 98.5977 261.426 98.5977C302.41 98.6133 340.883 114.566 369.809 143.516C398.738 172.469 414.66 210.953 414.645 251.879C414.609 336.336 345.867 405.051 261.426 405.051L261.426 405.051Z" id="Shape" fill="#FFFFFF" fill-rule="evenodd" stroke="none" />
    <path d="M127.406 0C57.1602 0 0.03125 57.1055 0 127.301C-0.0078125 151.355 6.72656 174.781 19.4727 195.051L22.5 199.867L9.63281 246.848L57.832 234.207L62.4844 236.965C82.0351 248.566 104.449 254.703 127.301 254.711L127.352 254.711C197.543 254.711 254.672 197.602 254.703 127.402C254.715 93.3828 241.48 61.3984 217.437 37.3359C193.395 13.2734 161.418 0.0117188 127.406 0L127.406 0ZM202.313 182.035C199.121 190.973 183.828 199.133 176.473 200.234C169.875 201.219 161.531 201.629 152.359 198.719C146.797 196.953 139.668 194.598 130.531 190.656C92.1289 174.078 67.0469 135.422 65.1328 132.867C63.2188 130.313 49.5 112.113 49.5 93.2734C49.5 74.4375 59.3906 65.1758 62.8984 61.3477C66.4102 57.5156 70.5586 56.5586 73.1094 56.5586C75.6602 56.5586 78.2148 56.582 80.4453 56.6914C82.7969 56.8086 85.9531 55.7969 89.0586 63.2617C92.25 70.9258 99.9063 89.7617 100.863 91.6758C101.82 93.5938 102.457 95.8281 101.184 98.3828C99.9063 100.938 95.6641 106.449 91.6133 111.473C89.9141 113.578 87.6992 115.453 89.9336 119.285C92.1641 123.113 99.8516 135.648 111.23 145.797C125.855 158.836 138.191 162.875 142.02 164.793C145.844 166.707 148.078 166.387 150.313 163.836C152.543 161.281 159.883 152.66 162.434 148.828C164.984 144.996 167.539 145.637 171.047 146.914C174.559 148.188 193.379 157.449 197.207 159.363C201.035 161.281 203.586 162.238 204.543 163.836C205.504 165.434 205.504 173.094 202.313 182.035L202.313 182.035Z" transform="translate(134.07031 124.46875)" id="Shape" fill="#FFFFFF" fill-rule="evenodd" stroke="none" />
  </g>
</svg>